<?xml version="1.0" encoding="utf-8" ?>
<svg baseProfile="full" height="300" version="1.1" viewBox="-149.51234926616192 -110.79407384428582 300.0 181.01690074042853" width="300" xmlns="http://www.w3.org/2000/svg" xmlns:ev="http://www.w3.org/2001/xml-events" xmlns:xlink="http://www.w3.org/1999/xlink"><defs /><circle cx="-132.70501256736588" cy="-9.1e-13" fill="none" r="18.75" stroke="black" stroke-width="2.381542472150566" transform="scale(0.4198959337042544,-0.4198959337042544)" /><circle cx="-132.70501256736588" cy="-9.1e-13" fill="none" r="18.75" stroke="black" stroke-width="2.381542472150566" transform="scale(0.4198959337042544,-0.4198959337042544)" /><line stroke="black" stroke-width="2.381542472150566" transform="scale(0.4198959337042544,-0.4198959337042544)" x1="113.95501256736588" x2="113.95501256736588" y1="86.86853020965654" y2="136.86853020965654" /><line stroke="black" stroke-width="2.381542472150566" transform="scale(0.4198959337042544,-0.4198959337042544)" x1="151.45501256736588" x2="151.45501256736588" y1="86.86853020965654" y2="136.86853020965654" /><circle cx="-132.70501256736497" cy="224.08465213207833" fill="none" r="18.75" stroke="black" stroke-width="2.381542472150566" transform="scale(0.4198959337042544,-0.4198959337042544)" /><circle cx="-307.16715259110606" cy="9.1e-13" fill="none" r="18.75" stroke="black" stroke-width="2.381542472150566" transform="scale(0.4198959337042544,-0.4198959337042544)" /><circle cx="-307.16715259110606" cy="9.1e-13" fill="none" r="18.75" stroke="black" stroke-width="2.381542472150566" transform="scale(0.4198959337042544,-0.4198959337042544)" /><line stroke="black" stroke-width="2.381542472150566" transform="scale(0.4198959337042544,-0.4198959337042544)" x1="288.41715259110606" x2="288.41715259110606" y1="86.86853020965654" y2="136.86853020965654" /><line stroke="black" stroke-width="2.381542472150566" transform="scale(0.4198959337042544,-0.4198959337042544)" x1="325.91715259110606" x2="325.91715259110606" y1="86.86853020965654" y2="136.86853020965654" /><circle cx="-304.8444307226846" cy="-128.89321579989578" fill="none" r="18.75" stroke="black" stroke-width="2.381542472150566" transform="scale(0.4198959337042544,-0.4198959337042544)" /><circle cx="-304.8444307226846" cy="-128.89321579989573" fill="none" r="18.75" stroke="black" stroke-width="2.381542472150566" transform="scale(0.4198959337042544,-0.4198959337042544)" /><line stroke="black" stroke-width="2.381542472150566" transform="scale(0.4198959337042544,-0.4198959337042544)" x1="286.0944307226846" x2="286.0944307226846" y1="203.3880073128806" y2="244.26536355500758" /><line stroke="black" stroke-width="2.381542472150566" transform="scale(0.4198959337042544,-0.4198959337042544)" x1="323.5944307226837" x2="323.5944307226837" y1="203.3880073128806" y2="244.26536355500758" /></svg>