<?xml version="1.0" encoding="utf-8" ?>
<svg baseProfile="full" height="300" version="1.1" viewBox="-13.636363636363638 -212.25306731190736 300.0 222.360356231522" width="300" xmlns="http://www.w3.org/2000/svg" xmlns:ev="http://www.w3.org/2001/xml-events" xmlns:xlink="http://www.w3.org/1999/xlink"><defs /><line stroke="black" stroke-width="1.2191031905327594" transform="scale(0.8202751069521775,-0.8202751069521775)" x1="163.99541420053447" x2="163.99541420053447" y1="107.8207213815459" y2="122.8207213815459" /><line stroke="black" stroke-width="1.2191031905327594" transform="scale(0.8202751069521775,-0.8202751069521775)" x1="103.99541420053447" x2="163.99541420053447" y1="122.8207213815459" y2="122.8207213815459" /><line stroke="black" stroke-width="1.2191031905327594" transform="scale(0.8202751069521775,-0.8202751069521775)" x1="103.99541420053447" x2="103.99541420053447" y1="107.8207213815459" y2="122.8207213815459" /><line stroke="black" stroke-width="1.2191031905327594" transform="scale(0.8202751069521775,-0.8202751069521775)" x1="173.99541420053447" x2="173.99541420053447" y1="97.8207213815459" y2="107.8207213815459" /><line stroke="black" stroke-width="1.2191031905327594" transform="scale(0.8202751069521775,-0.8202751069521775)" x1="93.99541420053447" x2="173.99541420053447" y1="97.8207213815459" y2="97.8207213815459" /><line stroke="black" stroke-width="1.2191031905327594" transform="scale(0.8202751069521775,-0.8202751069521775)" x1="93.99541420053447" x2="173.99541420053447" y1="107.8207213815459" y2="107.8207213815459" /><line stroke="black" stroke-width="1.2191031905327594" transform="scale(0.8202751069521775,-0.8202751069521775)" x1="93.99541420053447" x2="93.99541420053447" y1="97.8207213815459" y2="107.8207213815459" /><line stroke="black" stroke-width="1.2191031905327594" transform="scale(0.8202751069521775,-0.8202751069521775)" x1="274.10154445994067" x2="274.10154445994067" y1="107.8207213815459" y2="122.8207213815459" /><line stroke="black" stroke-width="1.2191031905327594" transform="scale(0.8202751069521775,-0.8202751069521775)" x1="304.10154445994067" x2="304.10154445994067" y1="107.8207213815459" y2="122.8207213815459" /><line stroke="black" stroke-width="1.2191031905327594" transform="scale(0.8202751069521775,-0.8202751069521775)" x1="274.10154445994067" x2="304.10154445994067" y1="122.8207213815459" y2="122.8207213815459" /><line stroke="black" stroke-width="1.2191031905327594" transform="scale(0.8202751069521775,-0.8202751069521775)" x1="264.10154445993794" x2="264.10154445993794" y1="97.8207213815459" y2="107.8207213815459" /><line stroke="black" stroke-width="1.2191031905327594" transform="scale(0.8202751069521775,-0.8202751069521775)" x1="314.10154445993794" x2="314.10154445993794" y1="97.8207213815459" y2="107.8207213815459" /><line stroke="black" stroke-width="1.2191031905327594" transform="scale(0.8202751069521775,-0.8202751069521775)" x1="264.10154445993794" x2="314.10154445993794" y1="97.8207213815459" y2="97.8207213815459" /><line stroke="black" stroke-width="1.2191031905327594" transform="scale(0.8202751069521775,-0.8202751069521775)" x1="264.10154445993794" x2="314.10154445993794" y1="107.8207213815459" y2="107.8207213815459" /><line stroke="black" stroke-width="1.2191031905327594" transform="scale(0.8202751069521775,-0.8202751069521775)" x1="163.99541420053538" x2="103.99541420053538" y1="230.3137373670652" y2="230.3137373670652" /><line stroke="black" stroke-width="1.2191031905327594" transform="scale(0.8202751069521775,-0.8202751069521775)" x1="163.99541420053538" x2="163.99541420053538" y1="200.3137373670652" y2="230.3137373670652" /><line stroke="black" stroke-width="1.2191031905327594" transform="scale(0.8202751069521775,-0.8202751069521775)" x1="103.99541420053538" x2="163.99541420053538" y1="200.3137373670652" y2="200.3137373670652" /><line stroke="black" stroke-width="1.2191031905327594" transform="scale(0.8202751069521775,-0.8202751069521775)" x1="103.99541420053538" x2="103.99541420053538" y1="230.3137373670652" y2="200.3137373670652" /><line stroke="black" stroke-width="1.2191031905327594" transform="scale(0.8202751069521775,-0.8202751069521775)" x1="173.99541420053538" x2="93.99541420053538" y1="240.3137373670652" y2="240.3137373670652" /><line stroke="black" stroke-width="1.2191031905327594" transform="scale(0.8202751069521775,-0.8202751069521775)" x1="173.99541420053538" x2="173.99541420053538" y1="190.3137373670652" y2="240.3137373670652" /><line stroke="black" stroke-width="1.2191031905327594" transform="scale(0.8202751069521775,-0.8202751069521775)" x1="93.99541420053538" x2="173.99541420053538" y1="190.3137373670652" y2="190.3137373670652" /><line stroke="black" stroke-width="1.2191031905327594" transform="scale(0.8202751069521775,-0.8202751069521775)" x1="93.99541420053538" x2="93.99541420053538" y1="240.3137373670652" y2="190.3137373670652" /><line stroke="black" stroke-width="1.2191031905327594" transform="scale(0.8202751069521775,-0.8202751069521775)" x1="318.3405527033847" x2="275.91414583218557" y1="222.00482056323568" y2="246.43656339077216" /><line stroke="black" stroke-width="1.2191031905327594" transform="scale(0.8202751069521775,-0.8202751069521775)" x1="318.3405527033847" x2="318.3405527033847" y1="209.74161369059757" y2="222.00482056323568" /><line stroke="black" stroke-width="1.2191031905327594" transform="scale(0.8202751069521775,-0.8202751069521775)" x1="318.3405527033847" x2="297.12734926779194" y1="209.74161369059757" y2="197.5257422768258" /><line stroke="black" stroke-width="1.2191031905327594" transform="scale(0.8202751069521775,-0.8202751069521775)" x1="297.12734926779194" x2="318.3405527033847" y1="209.78894914946392" y2="222.00482056323568" /><line stroke="black" stroke-width="1.2191031905327594" transform="scale(0.8202751069521775,-0.8202751069521775)" x1="297.12734926779194" x2="297.12734926779194" y1="197.5257422768258" y2="209.78894914946392" /><line stroke="black" stroke-width="1.2191031905327594" transform="scale(0.8202751069521775,-0.8202751069521775)" x1="297.12734926779194" x2="254.70094239659193" y1="197.5257422768258" y2="221.9574851043623" /><line stroke="black" stroke-width="1.2191031905327594" transform="scale(0.8202751069521775,-0.8202751069521775)" x1="254.70094239659193" x2="297.12734926779194" y1="234.2206919770004" y2="209.78894914946392" /><line stroke="black" stroke-width="1.2191031905327594" transform="scale(0.8202751069521775,-0.8202751069521775)" x1="254.70094239659193" x2="254.70094239659193" y1="221.9574851043623" y2="234.2206919770004" /><line stroke="black" stroke-width="1.2191031905327594" transform="scale(0.8202751069521775,-0.8202751069521775)" x1="275.91414583218557" x2="254.70094239659193" y1="246.43656339077216" y2="234.2206919770004" /><line stroke="black" stroke-width="1.2191031905327594" transform="scale(0.8202751069521775,-0.8202751069521775)" x1="332.4826883271162" x2="318.3405527033847" y1="209.74161369059894" y2="217.88552796644322" /><line stroke="black" stroke-width="1.2191031905327594" transform="scale(0.8202751069521775,-0.8202751069521775)" x1="332.4826883271162" x2="332.4826883271162" y1="201.56614244217354" y2="209.74161369059894" /><line stroke="black" stroke-width="1.2191031905327594" transform="scale(0.8202751069521775,-0.8202751069521775)" x1="297.12734926779376" x2="332.4826883271162" y1="181.20635675255386" y2="201.56614244217354" /><line stroke="black" stroke-width="1.2191031905327594" transform="scale(0.8202751069521775,-0.8202751069521775)" x1="297.12734926779376" x2="332.4826883271162" y1="189.38182800097925" y2="209.74161369059894" /><line stroke="black" stroke-width="1.2191031905327594" transform="scale(0.8202751069521775,-0.8202751069521775)" x1="297.12734926779376" x2="297.12734926779376" y1="181.20635675255386" y2="189.38182800097925" /><line stroke="black" stroke-width="1.2191031905327594" transform="scale(0.8202751069521775,-0.8202751069521775)" x1="240.55880677286132" x2="297.12734926779376" y1="213.78201385593576" y2="181.20635675255386" /><line stroke="black" stroke-width="1.2191031905327594" transform="scale(0.8202751069521775,-0.8202751069521775)" x1="240.55880677286132" x2="297.12734926779376" y1="221.95748510436115" y2="189.38182800097925" /><line stroke="black" stroke-width="1.2191031905327594" transform="scale(0.8202751069521775,-0.8202751069521775)" x1="240.55880677286132" x2="240.55880677286132" y1="213.78201385593576" y2="221.95748510436115" /><line stroke="black" stroke-width="1.2191031905327594" transform="scale(0.8202751069521775,-0.8202751069521775)" x1="254.70094239659193" x2="240.55880677286132" y1="230.10139938020998" y2="221.95748510436115" /></svg>