<?xml version="1.0" ?>
<svg baseProfile="full" height="100%" version="1.1" viewBox="257.075937 202.490684 70.710678 59.138049" width="100%" xmlns="http://www.w3.org/2000/svg" xmlns:ev="http://www.w3.org/2001/xml-events" xmlns:xlink="http://www.w3.org/1999/xlink">
	<defs/>
	<path d="M 303.0378773621751,261.6287331511509 L 317.18001298590843,253.4848188753055" fill="none" stroke="#000000" stroke-width="0.07071067811865578"/>
	<path d="M 317.18001298590843,253.4848188753055 L 317.18001298590843,241.22161200266743" fill="none" stroke="#000000" stroke-width="0.07071067811865578"/>
	<path d="M 267.68253830285266,241.26894746153124 L 281.824673926586,233.12503318568582" fill="none" stroke="#000000" stroke-width="0.07071067811865578"/>
	<path d="M 267.68253830285266,241.26894746153124 L 303.0378773621751,261.6287331511509" fill="none" stroke="#000000" stroke-width="0.07071067811865578"/>
	<path d="M 317.18001298590843,241.22161200266743 L 327.78661470370844,235.11367629578336" fill="none" stroke="#000000" stroke-width="0.07071067811865578"/>
	<path d="M 327.78661470370844,235.11367629578336 L 327.78661470370844,222.85046942314526" fill="none" stroke="#000000" stroke-width="0.07071067811865578"/>
	<path d="M 257.07593658505266,235.11367629577745 L 267.68253830285266,229.00574058889316" fill="none" stroke="#000000" stroke-width="0.07071067811865578"/>
	<path d="M 257.07593658505266,235.11367629577745 L 267.68253830285266,241.22161200266515" fill="none" stroke="#000000" stroke-width="0.07071067811865578"/>
	<path d="M 281.824673926586,233.12503318568582 L 281.824673926586,220.86182631304774" fill="none" stroke="#000000" stroke-width="0.07071067811865578"/>
	<path d="M 281.824673926586,233.12503318568582 L 317.18001298590843,253.4848188753055" fill="none" stroke="#000000" stroke-width="0.07071067811865578"/>
	<path d="M 267.68253830285266,229.00574058889316 L 267.68253830285266,241.26894746153124" fill="none" stroke="#000000" stroke-width="0.07071067811865578"/>
	<path d="M 257.07593658505266,222.85046942313934 L 257.07593658505266,235.11367629577745" fill="none" stroke="#000000" stroke-width="0.07071067811865578"/>
	<path d="M 281.824673926586,220.86182631304774 L 292.431275644386,214.75389060616368" fill="none" stroke="#000000" stroke-width="0.07071067811865578"/>
	<path d="M 281.824673926586,220.86182631304774 L 317.18001298590843,241.22161200266743" fill="none" stroke="#000000" stroke-width="0.07071067811865578"/>
	<path d="M 292.431275644386,214.75389060616368 L 292.431275644386,202.49068373352557" fill="none" stroke="#000000" stroke-width="0.07071067811865578"/>
	<path d="M 292.431275644386,214.75389060616368 L 327.78661470370844,235.11367629578336" fill="none" stroke="#000000" stroke-width="0.07071067811865578"/>
	<path d="M 292.431275644386,202.49068373352557 L 327.78661470370844,222.85046942314526" fill="none" stroke="#000000" stroke-width="0.07071067811865578"/>
	<path d="M 292.431275644386,202.49068373352557 L 257.07593658505266,222.85046942313934" fill="none" stroke="#000000" stroke-width="0.07071067811865578"/>
</svg>
