# Blender v2.83.5 OBJ File: ''
# www.blender.org
mtllib top.mtl
o Curve.009_Curve.024
v -8.466843 0.000000 -8.465052
v -8.466843 0.000000 8.465052
v 8.466840 0.000000 8.465052
v 8.466840 0.000000 -8.465052
v 3.386736 0.000000 -8.465052
v 3.386736 0.000000 8.465052
v -3.386739 0.000000 -8.465052
v -3.386739 0.000000 8.465052
vt 0.000000 0.000000
vt 0.000000 0.000000
vt 0.000000 0.000000
vt 0.000000 0.000000
vt 0.000000 0.000000
vt 0.000000 0.000000
vt 0.000000 0.000000
vt 0.000000 0.000000
vn 0.0000 -1.0000 0.0000
usemtl None
s off
f 2/1/1 1/2/1 7/3/1 8/4/1
f 8/4/1 7/3/1 5/5/1 6/6/1
f 6/6/1 5/5/1 4/7/1 3/8/1
