999
LibreDWG 0.10.1.932_173e
  0
SECTION
  2
HEADER
  9
$ACADVER
  1
AC1027
  9
$HANDSEED
  5
24B
  0
ENDSEC
  0
SECTION
  2
ENTITIES
  0
INSERT
  5
D3
330
70
100
AcDbEntity
  8
Border
  6
ByLayer
284
     0
100
AcDbBlockReference
  2
ISO_A3_SHEET
 10
0.0
 20
0.0
 30
0.0
 50
0.0
210
0.0
220
0.0
230
1.0
  0
INSERT
  5
119
330
70
100
AcDbEntity
  8
TitleBlock
  6
ByLayer
284
     0
100
AcDbBlockReference
  2
ISO_TITLEBLOCK
 66
     1
 10
410.0
 20
10.0
 30
0.0
 50
0.0
210
0.0
220
0.0
230
1.0
  0
ATTRIB
  5
146
330
119
100
AcDbEntity
  8
TitleBlock
  6
ByLayer
284
     0
  7
FusionTitle
100
AcDbText
 10
360.0
 20
11.5
 39
0.0
 40
3.5
  1

100
AcDbAttribute
  2
DATE_OF_ISSUE
 73
     0
 70
     0
  0
ATTRIB
  5
147
330
119
100
AcDbEntity
  8
TitleBlock
  6
ByLayer
284
     0
  7
FusionTitle
100
AcDbText
 10
354.0
 20
13.1
 11
10.0
 21
20.0
 39
0.0
 40
3.5
  1

 72
     4
100
AcDbAttribute
  2
REV
 73
     0
 70
     0
  0
ATTRIB
  5
148
330
119
100
AcDbEntity
  8
TitleBlock
  6
ByLayer
284
     0
  7
FusionTitle
100
AcDbText
 10
289.0
 20
11.5
 39
0.0
 40
5.0
  1

100
AcDbAttribute
  2
TITLE_3
 73
     0
 70
     0
  0
ATTRIB
  5
149
330
119
100
AcDbEntity
  8
TitleBlock
  6
ByLayer
284
     0
  7
FusionTitle
100
AcDbText
 10
350.0
 20
38.5
 39
0.0
 40
3.5
  1

100
AcDbAttribute
  2
DOCUMENT_STATUS
 73
     0
 70
     0
  0
ATTRIB
  5
14A
330
119
100
AcDbEntity
  8
TitleBlock
  6
ByLayer
284
     0
  7
FusionTitle
100
AcDbText
 10
289.0
 20
38.5
 39
0.0
 40
3.5
  1

100
AcDbAttribute
  2
DOCUMENT_TYPE
 73
     0
 70
     0
  0
ATTRIB
  5
14B
330
119
100
AcDbEntity
  8
TitleBlock
  6
ByLayer
284
     0
  7
FusionTitle
100
AcDbText
 10
409.0
 20
48.5
 11
10.0
 21
20.0
 39
0.0
 40
3.5
  1

 72
     2
100
AcDbAttribute
  2
APPROVED_DATE
 73
     0
 70
     0
  0
ATTRIB
  5
14C
330
119
100
AcDbEntity
  8
TitleBlock
  6
ByLayer
284
     0
  7
FusionTitle
100
AcDbText
 10
323.52864938608457
 20
48.5
 11
348.0
 21
20.0
 39
0.0
 40
3.5
  1
04.07.2020
 72
     2
100
AcDbAttribute
  2
CREATED_DATE
 73
     0
 70
     0
  0
ATTRIB
  5
14D
330
119
100
AcDbEntity
  8
TitleBlock
  6
ByLayer
284
     0
  7
FusionTitle
100
AcDbText
 10
399.10146657571624
 20
11.35
 11
402.5
 21
13.1
 39
0.0
 40
3.5
  1
1/1
 72
     4
100
AcDbAttribute
  2
SHEET
 73
     0
 70
     0
  0
ATTRIB
  5
14E
330
119
100
AcDbEntity
  8
TitleBlock
  6
ByLayer
284
     0
  7
FusionTitle
100
AcDbText
 10
289.0
 20
19.0
 39
0.0
 40
5.0
  1

100
AcDbAttribute
  2
TITLE_2
 73
     0
 70
     0
  0
ATTRIB
  5
14F
330
119
100
AcDbEntity
  8
TitleBlock
  6
ByLayer
284
     0
  7
FusionTitle
100
AcDbText
 10
371.34345156889498
 20
24.13240109140519
 11
10.359375
 21
26.6
 39
0.0
 40
5.0
  1
P001
 72
     4
100
AcDbAttribute
  2
DRAWING_NUMBER
 73
     0
 70
     0
1001
FUSIONTITLEBLOCKATTRIBUTEOVERRIDE
1070
     1
  0
ATTRIB
  5
150
330
119
100
AcDbEntity
  8
TitleBlock
  6
ByLayer
284
     0
  7
FusionTitle
100
AcDbText
 10
289.0
 20
26.5
 39
0.0
 40
5.0
  1
Sześcian
100
AcDbAttribute
  2
TITLE_1
 73
     0
 70
     0
1001
FUSIONTITLEBLOCKATTRIBUTEOVERRIDE
1070
     1
  0
ATTRIB
  5
151
330
119
100
AcDbEntity
  8
TitleBlock
  6
ByLayer
284
     0
  7
FusionTitle
100
AcDbText
 10
350.0
 20
48.5
 39
0.0
 40
3.5
  1

100
AcDbAttribute
  2
APPROVED_BY
 73
     0
 70
     0
  0
ATTRIB
  5
152
330
119
100
AcDbEntity
  8
TitleBlock
  6
ByLayer
284
     0
  7
FusionTitle
100
AcDbText
 10
289.0
 20
48.5
 39
0.0
 40
3.5
  1

100
AcDbAttribute
  2
CREATED_BY
 73
     0
 70
     0
1001
FUSIONTITLEBLOCKATTRIBUTEOVERRIDE
1070
     1
  0
ATTRIB
  5
153
330
119
100
AcDbEntity
  8
TitleBlock
  6
ByLayer
284
     0
  7
FusionTitle
100
AcDbText
 10
255.0
 20
48.5
 39
0.0
 40
3.5
  1

100
AcDbAttribute
  2
TECHNICAL_REFERENCE
 73
     0
 70
     0
  0
ATTRIB
  5
154
330
119
100
AcDbEntity
  8
TitleBlock
  6
ByLayer
284
     0
  7
FusionTitle
100
AcDbText
 10
231.0
 20
48.5
 39
0.0
 40
3.5
  1

100
AcDbAttribute
  2
DEPT
 73
     0
 70
     0
  0
SEQEND
  5
155
330
119
100
AcDbEntity
  8
TitleBlock
  6
ByLayer
284
     0
  0
DIMENSION
  5
156
330
70
100
AcDbEntity
  8
Dimensions
  6
ByLayer
284
     0
100
AcDbDimension
280
     0
  2
*D7
 10
98.2303695488138
 20
133.14512365063453
 30
0.0
 11
94.94336409178787
 21
108.14512365063447
 31
0.0
 70
   128
  1

  1
1.0
  2
1.0
 71
     5
 72
     1
 41
1.0
 42
50.00000000000001
 73
     0
 74
     0
 75
     0
 12
0.0
 22
0.0
  3
ISO-25
100
AcDbAlignedDimension
 13
108.12986448542506
 23
83.14512365063447
 33
0.0
 14
108.12986448542506
 24
133.14512365063447
 34
0.0
1001
ACAD_DIMASSOC_CALC_DIMLFAC
1040
-1.0
1001
ACAD_DIMASSOC_DIMLFAC
1040
-1.0
1001
ACAD_DIMASSOC_OVERRIDDEN_DIMLFAC
1040
0.0
1001
ACAD
1000
䐀匀吀夀䰀䔀
1002
{
1070
   144
1040
1.0
1070
   176
1070
   256
1070
   177
1070
   256
1002
}
  0
DIMENSION
  5
164
330
70
100
AcDbEntity
  8
Dimensions
  6
ByLayer
284
     0
100
AcDbDimension
280
     0
  2
*D8
 10
285.40007198940293
 20
73.24562871402281
 30
0.0
 11
260.40007198940293
 21
76.53263417104874
 31
0.0
 70
   128
  1

  1
1.0
  2
1.0
 71
     5
 72
     1
 41
1.0
 42
50.0
 73
     0
 74
     0
 75
     0
 12
0.0
 22
0.0
  3
ISO-25
100
AcDbAlignedDimension
 13
235.40007198940293
 23
83.14512365063447
 33
0.0
 14
285.40007198940293
 24
83.14512365063447
 34
0.0
1001
ACAD_DIMASSOC_CALC_DIMLFAC
1040
-1.0
1001
ACAD_DIMASSOC_DIMLFAC
1040
-1.0
1001
ACAD_DIMASSOC_OVERRIDDEN_DIMLFAC
1040
0.0
1001
ACAD
1000
䐀匀吀夀䰀䔀
1002
{
1070
   144
1040
1.0
1070
   176
1070
   256
1070
   177
1070
   256
1002
}
  0
DIMENSION
  5
171
330
70
100
AcDbEntity
  8
Dimensions
  6
ByLayer
284
     0
100
AcDbDimension
280
     0
  2
*D9
 10
158.12986461590299
 20
247.91731081997079
 30
0.0
 11
133.12986461590299
 21
251.20431627699671
 31
0.0
 70
   128
  1

  1
1.0
  2
1.0
 71
     5
 72
     1
 41
1.0
 42
50.0
 73
     0
 74
     0
 75
     0
 12
0.0
 22
0.0
  3
ISO-25
100
AcDbAlignedDimension
 13
108.12986461590299
 23
239.51095705445914
 33
0.0
 14
158.12986461590299
 24
239.51095705445914
 34
0.0
1001
ACAD_DIMASSOC_CALC_DIMLFAC
1040
-1.0
1001
ACAD_DIMASSOC_DIMLFAC
1040
-1.0
1001
ACAD_DIMASSOC_OVERRIDDEN_DIMLFAC
1040
0.0
1001
ACAD
1000
䐀匀吀夀䰀䔀
1002
{
1070
   144
1040
1.0
1070
   176
1070
   256
1070
   177
1070
   256
1002
}
  0
LINE
  5
1F5
330
70
100
AcDbEntity
  8
Visible
  6
ByLayer
284
     0
100
AcDbLine
 10
158.12986448542324
 20
83.14512365063447
 30
24.99999999999818
 11
158.12986448542324
 21
133.14512365063447
 31
24.99999999999818
 39
0.0
210
0.0
220
1.0
230
0.0
  0
LINE
  5
1F6
330
70
100
AcDbEntity
  8
Visible
  6
ByLayer
284
     0
100
AcDbLine
 10
108.12986448542324
 20
83.14512365063447
 30
24.99999999999818
 11
158.12986448542324
 21
83.14512365063447
 31
24.99999999999818
 39
0.0
210
0.0
220
1.0
230
0.0
  0
LINE
  5
1F7
330
70
100
AcDbEntity
  8
Visible
  6
ByLayer
284
     0
100
AcDbLine
 10
108.12986448542324
 20
133.14512365063447
 30
24.99999999999818
 11
158.12986448542324
 21
133.14512365063447
 31
24.99999999999818
 39
0.0
210
0.0
220
1.0
230
0.0
  0
LINE
  5
1F8
330
70
100
AcDbEntity
  8
Visible
  6
ByLayer
284
     0
100
AcDbLine
 10
108.12986448542324
 20
83.14512365063447
 30
24.99999999999818
 11
108.12986448542324
 21
133.14512365063447
 31
24.99999999999818
 39
0.0
210
0.0
220
1.0
230
0.0
  0
LINE
  5
1F9
330
70
100
AcDbEntity
  8
Visible
  6
ByLayer
284
     0
100
AcDbLine
 10
291.21004263261784
 20
236.82039103453809
 30
14.39654252463278
 11
255.8547035732845
 21
257.18017672415164
 31
-14.50811327114898
 39
0.0
210
0.0
220
0.81754712484254
230
0.57586170098531
  0
LINE
  5
1FA
330
70
100
AcDbEntity
  8
Visible
  6
ByLayer
284
     0
100
AcDbLine
 10
291.21004263261784
 20
195.94303479241108
 30
-14.39654252463281
 11
291.21004263261784
 21
236.82039103453809
 31
14.39654252463278
 39
0.0
210
0.0
220
0.81754712484254
230
0.57586170098531
  0
LINE
  5
1FB
330
70
100
AcDbEntity
  8
Visible
  6
ByLayer
284
     0
100
AcDbLine
 10
255.85470357329541
 20
175.58324910279117
 30
14.50811327115805
 11
291.21004263261784
 21
195.94303479241108
 31
-14.39654252463281
 39
0.0
210
0.0
220
0.81754712484254
230
0.57586170098531
  0
LINE
  5
1FC
330
70
100
AcDbEntity
  8
Visible
  6
ByLayer
284
     0
100
AcDbLine
 10
255.85470357329541
 20
216.46060534491818
 30
43.30119832042364
 11
291.21004263261784
 21
236.82039103453809
 31
14.39654252463278
 39
0.0
210
0.0
220
0.81754712484254
230
0.57586170098531
  0
LINE
  5
1FD
330
70
100
AcDbEntity
  8
Visible
  6
ByLayer
284
     0
100
AcDbLine
 10
255.85470357329541
 20
175.58324910279117
 30
14.50811327115805
 11
255.85470357329541
 21
216.46060534491818
 31
43.30119832042364
 39
0.0
210
0.0
220
0.81754712484254
230
0.57586170098531
  0
LINE
  5
1FE
330
70
100
AcDbEntity
  8
Visible
  6
ByLayer
284
     0
100
AcDbLine
 10
220.49936451396206
 20
195.94303479240472
 30
-14.39654252462371
 11
255.85470357329541
 21
175.58324910279117
 31
14.50811327115805
 39
0.0
210
0.0
220
0.81754712484254
230
0.57586170098531
  0
LINE
  5
1FF
330
70
100
AcDbEntity
  8
Visible
  6
ByLayer
284
     0
100
AcDbLine
 10
220.49936451396206
 20
236.82039103453172
 30
14.39654252464188
 11
255.85470357329541
 21
216.46060534491818
 31
43.30119832042364
 39
0.0
210
0.0
220
0.81754712484254
230
0.57586170098531
  0
LINE
  5
200
330
70
100
AcDbEntity
  8
Visible
  6
ByLayer
284
     0
100
AcDbLine
 10
220.49936451396206
 20
195.94303479240472
 30
-14.39654252462371
 11
220.49936451396206
 21
236.82039103453172
 31
14.39654252464188
 39
0.0
210
0.0
220
0.81754712484254
230
0.57586170098531
  0
LINE
  5
201
330
70
100
AcDbEntity
  8
Visible
  6
ByLayer
284
     0
100
AcDbLine
 10
255.8547035732845
 20
257.18017672415164
 30
-14.50811327114898
 11
220.49936451396206
 21
236.82039103453172
 31
14.39654252464188
 39
0.0
210
0.0
220
0.81754712484254
230
0.57586170098531
  0
LINE
  5
202
330
70
100
AcDbEntity
  8
Visible
  6
ByLayer
284
     0
100
AcDbLine
 10
158.12986461589935
 20
189.5109570544555
 30
24.99999999999259
 11
108.12986461589935
 21
189.5109570544555
 31
24.99999999999259
 39
0.0
210
0.0
220
0.0000000000003
230
-1.0
  0
LINE
  5
203
330
70
100
AcDbEntity
  8
Visible
  6
ByLayer
284
     0
100
AcDbLine
 10
158.12986461589935
 20
239.5109570544555
 30
25.00000000000741
 11
158.12986461589935
 21
189.5109570544555
 31
24.99999999999259
 39
0.0
210
0.0
220
0.0000000000003
230
-1.0
  0
LINE
  5
204
330
70
100
AcDbEntity
  8
Visible
  6
ByLayer
284
     0
100
AcDbLine
 10
108.12986461589935
 20
239.5109570544555
 30
25.00000000000741
 11
158.12986461589935
 21
239.5109570544555
 31
25.00000000000741
 39
0.0
210
0.0
220
0.0000000000003
230
-1.0
  0
LINE
  5
205
330
70
100
AcDbEntity
  8
Visible
  6
ByLayer
284
     0
100
AcDbLine
 10
108.12986461589935
 20
189.5109570544555
 30
24.99999999999259
 11
108.12986461589935
 21
239.5109570544555
 31
25.00000000000741
 39
0.0
210
0.0
220
0.0000000000003
230
-1.0
  0
LINE
  5
206
330
70
100
AcDbEntity
  8
Visible
  6
ByLayer
284
     0
100
AcDbLine
 10
235.40007198940111
 20
83.14512365063447
 30
24.99999999999454
 11
235.40007198940111
 21
133.14512365063447
 31
24.99999999999454
 39
0.0
210
0.0
220
1.0
230
0.0
  0
LINE
  5
207
330
70
100
AcDbEntity
  8
Visible
  6
ByLayer
284
     0
100
AcDbLine
 10
285.40007198940111
 20
83.14512365063447
 30
25.00000000001091
 11
285.40007198940111
 21
133.14512365063447
 31
25.00000000001091
 39
0.0
210
0.0
220
1.0
230
0.0
  0
LINE
  5
208
330
70
100
AcDbEntity
  8
Visible
  6
ByLayer
284
     0
100
AcDbLine
 10
235.40007198940111
 20
83.14512365063447
 30
24.99999999999454
 11
285.40007198940111
 21
83.14512365063447
 31
25.00000000001091
 39
0.0
210
0.0
220
1.0
230
0.0
  0
LINE
  5
209
330
70
100
AcDbEntity
  8
Visible
  6
ByLayer
284
     0
100
AcDbLine
 10
235.40007198940111
 20
133.14512365063447
 30
24.99999999999454
 11
285.40007198940111
 21
133.14512365063447
 31
25.00000000001091
 39
0.0
210
0.0
220
1.0
230
0.0
  0
ENDSEC
  0
EOF
