999
LibreDWG 0.10.1.932_173e
  0
SECTION
  2
HEADER
  9
$ACADVER
  1
AC1027
  9
$HANDSEED
  5
2ED
  0
ENDSEC
  0
SECTION
  2
ENTITIES
  0
INSERT
  5
DE
330
70
100
AcDbEntity
  8
Border
  6
ByLayer
284
     0
100
AcDbBlockReference
  2
ISO_A3_SHEET
 10
0.0
 20
0.0
 30
0.0
 50
0.0
210
0.0
220
0.0
230
1.0
  0
INSERT
  5
124
330
70
100
AcDbEntity
  8
TitleBlock
  6
ByLayer
284
     0
100
AcDbBlockReference
  2
ISO_TITLEBLOCK
 66
     1
 10
410.0
 20
10.0
 30
0.0
 50
0.0
210
0.0
220
0.0
230
1.0
  0
ATTRIB
  5
151
330
124
100
AcDbEntity
  8
TitleBlock
  6
ByLayer
284
     0
  7
FusionTitle
100
AcDbText
 10
360.0
 20
11.5
 39
0.0
 40
3.5
  1

100
AcDbAttribute
  2
DATE_OF_ISSUE
 73
     0
 70
     0
  0
ATTRIB
  5
152
330
124
100
AcDbEntity
  8
TitleBlock
  6
ByLayer
284
     0
  7
FusionTitle
100
AcDbText
 10
354.0
 20
13.1
 11
10.0
 21
20.0
 39
0.0
 40
3.5
  1

 72
     4
100
AcDbAttribute
  2
REV
 73
     0
 70
     0
  0
ATTRIB
  5
153
330
124
100
AcDbEntity
  8
TitleBlock
  6
ByLayer
284
     0
  7
FusionTitle
100
AcDbText
 10
289.0
 20
11.5
 39
0.0
 40
5.0
  1

100
AcDbAttribute
  2
TITLE_3
 73
     0
 70
     0
  0
ATTRIB
  5
154
330
124
100
AcDbEntity
  8
TitleBlock
  6
ByLayer
284
     0
  7
FusionTitle
100
AcDbText
 10
350.0
 20
38.5
 39
0.0
 40
3.5
  1

100
AcDbAttribute
  2
DOCUMENT_STATUS
 73
     0
 70
     0
  0
ATTRIB
  5
155
330
124
100
AcDbEntity
  8
TitleBlock
  6
ByLayer
284
     0
  7
FusionTitle
100
AcDbText
 10
289.0
 20
38.5
 39
0.0
 40
3.5
  1

100
AcDbAttribute
  2
DOCUMENT_TYPE
 73
     0
 70
     0
  0
ATTRIB
  5
156
330
124
100
AcDbEntity
  8
TitleBlock
  6
ByLayer
284
     0
  7
FusionTitle
100
AcDbText
 10
409.0
 20
48.5
 11
10.0
 21
20.0
 39
0.0
 40
3.5
  1

 72
     2
100
AcDbAttribute
  2
APPROVED_DATE
 73
     0
 70
     0
  0
ATTRIB
  5
157
330
124
100
AcDbEntity
  8
TitleBlock
  6
ByLayer
284
     0
  7
FusionTitle
100
AcDbText
 10
323.52864938608457
 20
48.5
 11
348.0
 21
20.0
 39
0.0
 40
3.5
  1
04.07.2020
 72
     2
100
AcDbAttribute
  2
CREATED_DATE
 73
     0
 70
     0
  0
ATTRIB
  5
158
330
124
100
AcDbEntity
  8
TitleBlock
  6
ByLayer
284
     0
  7
FusionTitle
100
AcDbText
 10
399.10146657571624
 20
11.35
 11
402.5
 21
13.1
 39
0.0
 40
3.5
  1
1/1
 72
     4
100
AcDbAttribute
  2
SHEET
 73
     0
 70
     0
  0
ATTRIB
  5
159
330
124
100
AcDbEntity
  8
TitleBlock
  6
ByLayer
284
     0
  7
FusionTitle
100
AcDbText
 10
289.0
 20
19.0
 39
0.0
 40
5.0
  1

100
AcDbAttribute
  2
TITLE_2
 73
     0
 70
     0
  0
ATTRIB
  5
15A
330
124
100
AcDbEntity
  8
TitleBlock
  6
ByLayer
284
     0
  7
FusionTitle
100
AcDbText
 10
379.5
 20
26.6
 11
10.0
 21
20.0
 39
0.0
 40
5.0
  1

 72
     4
100
AcDbAttribute
  2
DRAWING_NUMBER
 73
     0
 70
     0
1001
FUSIONTITLEBLOCKATTRIBUTEOVERRIDE
1070
     1
  0
ATTRIB
  5
15B
330
124
100
AcDbEntity
  8
TitleBlock
  6
ByLayer
284
     0
  7
FusionTitle
100
AcDbText
 10
289.0
 20
26.5
 39
0.0
 40
5.0
  1
P004
100
AcDbAttribute
  2
TITLE_1
 73
     0
 70
     0
  0
ATTRIB
  5
15C
330
124
100
AcDbEntity
  8
TitleBlock
  6
ByLayer
284
     0
  7
FusionTitle
100
AcDbText
 10
350.0
 20
48.5
 39
0.0
 40
3.5
  1

100
AcDbAttribute
  2
APPROVED_BY
 73
     0
 70
     0
  0
ATTRIB
  5
15D
330
124
100
AcDbEntity
  8
TitleBlock
  6
ByLayer
284
     0
  7
FusionTitle
100
AcDbText
 10
289.0
 20
48.5
 39
0.0
 40
3.5
  1

100
AcDbAttribute
  2
CREATED_BY
 73
     0
 70
     0
1001
FUSIONTITLEBLOCKATTRIBUTEOVERRIDE
1070
     1
  0
ATTRIB
  5
15E
330
124
100
AcDbEntity
  8
TitleBlock
  6
ByLayer
284
     0
  7
FusionTitle
100
AcDbText
 10
255.0
 20
48.5
 39
0.0
 40
3.5
  1

100
AcDbAttribute
  2
TECHNICAL_REFERENCE
 73
     0
 70
     0
  0
ATTRIB
  5
15F
330
124
100
AcDbEntity
  8
TitleBlock
  6
ByLayer
284
     0
  7
FusionTitle
100
AcDbText
 10
231.0
 20
48.5
 39
0.0
 40
3.5
  1

100
AcDbAttribute
  2
DEPT
 73
     0
 70
     0
  0
SEQEND
  5
160
330
124
100
AcDbEntity
  8
TitleBlock
  6
ByLayer
284
     0
  0
DIMENSION
  5
161
330
70
100
AcDbEntity
  8
Dimensions
  6
ByLayer
284
     0
100
AcDbDimension
280
     0
  2
*D7
 10
169.57669750254718
 20
73.6154495771784
 30
0.0
 11
144.57669750254718
 21
76.90245503420432
 31
0.0
 70
   128
  1

  1
1.0
  2
1.0
 71
     5
 72
     1
 41
1.0
 42
50.0
 73
     0
 74
     0
 75
     0
 12
0.0
 22
0.0
  3
ISO-25
100
AcDbAlignedDimension
 13
119.57669750254718
 23
83.51494451379006
 33
0.0
 14
169.57669750254718
 24
83.51494451379006
 34
0.0
1001
ACAD_DIMASSOC_CALC_DIMLFAC
1040
-1.0
1001
ACAD_DIMASSOC_DIMLFAC
1040
-1.0
1001
ACAD_DIMASSOC_OVERRIDDEN_DIMLFAC
1040
0.0
1001
ACAD
1000
䐀匀吀夀䰀䔀
1002
{
1070
   144
1040
1.0
1070
   176
1070
   256
1070
   177
1070
   256
1002
}
  0
DIMENSION
  5
16F
330
70
100
AcDbEntity
  8
Dimensions
  6
ByLayer
284
     0
100
AcDbDimension
280
     0
  2
*D8
 10
179.47619243915923
 20
133.51494451379011
 30
0.0
 11
176.18918698213332
 21
108.51494451379003
 31
0.0
 70
   128
  1

  1
1.0
  2
1.0
 71
     5
 72
     1
 41
1.0
 42
50.00000000000003
 73
     0
 74
     0
 75
     0
 12
0.0
 22
0.0
  3
ISO-25
100
AcDbAlignedDimension
 13
169.57669750254718
 23
83.51494451379006
 33
0.0
 14
169.57669750254718
 24
133.51494451379006
 34
0.0
1001
ACAD_DIMASSOC_CALC_DIMLFAC
1040
-1.0
1001
ACAD_DIMASSOC_DIMLFAC
1040
-1.0
1001
ACAD_DIMASSOC_OVERRIDDEN_DIMLFAC
1040
0.0
1001
ACAD
1000
䐀匀吀夀䰀䔀
1002
{
1070
   144
1040
1.0
1070
   176
1070
   256
1070
   177
1070
   256
1002
}
  0
DIMENSION
  5
17C
330
70
100
AcDbEntity
  8
Dimensions
  6
ByLayer
284
     0
100
AcDbDimension
280
     0
  2
*D9
 10
169.57669750254718
 20
143.41443945040172
 30
0.0
 11
162.07669750254718
 21
146.70144490742763
 31
0.0
 70
   128
  1

  1
1.0
  2
1.0
 71
     5
 72
     1
 41
1.0
 42
15.0
 73
     0
 74
     0
 75
     0
 12
0.0
 22
0.0
  3
ISO-25
100
AcDbAlignedDimension
 13
154.57669750254718
 23
133.51494451379006
 33
0.0
 14
169.57669750254718
 24
133.51494451379006
 34
0.0
1001
ACAD_DIMASSOC_CALC_DIMLFAC
1040
-1.0
1001
ACAD_DIMASSOC_DIMLFAC
1040
-1.0
1001
ACAD_DIMASSOC_OVERRIDDEN_DIMLFAC
1040
0.0
1001
ACAD
1000
䐀匀吀夀䰀䔀
1002
{
1070
   144
1040
1.0
1070
   176
1070
   256
1070
   177
1070
   256
1002
}
  0
DIMENSION
  5
189
330
70
100
AcDbEntity
  8
Dimensions
  6
ByLayer
284
     0
100
AcDbDimension
280
     0
  2
*D10
 10
109.67720256593591
 20
98.51494451379011
 30
0.0
 11
106.39019710890999
 21
91.01494451379006
 31
0.0
 70
   128
  1

  1
1.0
  2
1.0
 71
     5
 72
     1
 41
1.0
 42
15.00000000000001
 73
     0
 74
     0
 75
     0
 12
0.0
 22
0.0
  3
ISO-25
100
AcDbAlignedDimension
 13
119.57669750254718
 23
83.51494451379006
 33
0.0
 14
119.57669750254718
 24
98.51494451379006
 34
0.0
1001
ACAD_DIMASSOC_CALC_DIMLFAC
1040
-1.0
1001
ACAD_DIMASSOC_DIMLFAC
1040
-1.0
1001
ACAD_DIMASSOC_OVERRIDDEN_DIMLFAC
1040
0.0
1001
ACAD
1000
䐀匀吀夀䰀䔀
1002
{
1070
   144
1040
1.0
1070
   176
1070
   256
1070
   177
1070
   256
1002
}
  0
DIMENSION
  5
196
330
70
100
AcDbEntity
  8
Dimensions
  6
ByLayer
284
     0
100
AcDbDimension
280
     0
  2
*D11
 10
312.29498762057301
 20
73.61544957717841
 30
0.0
 11
287.29498762057301
 21
76.90245503420434
 31
0.0
 70
   128
  1

  1
1.0
  2
1.0
 71
     5
 72
     1
 41
1.0
 42
50.0
 73
     0
 74
     0
 75
     0
 12
0.0
 22
0.0
  3
ISO-25
100
AcDbAlignedDimension
 13
262.29498762057301
 23
83.51494451379007
 33
0.0
 14
312.29498762057301
 24
83.51494451379007
 34
0.0
1001
ACAD_DIMASSOC_CALC_DIMLFAC
1040
-1.0
1001
ACAD_DIMASSOC_DIMLFAC
1040
-1.0
1001
ACAD_DIMASSOC_OVERRIDDEN_DIMLFAC
1040
0.0
1001
ACAD
1000
䐀匀吀夀䰀䔀
1002
{
1070
   144
1040
1.0
1070
   176
1070
   256
1070
   177
1070
   256
1002
}
  0
LINE
  5
268
330
70
100
AcDbEntity
  8
Visible
  6
ByLayer
284
     0
100
AcDbLine
 10
154.57669750254536
 20
98.51494451379007
 30
24.99999999999818
 11
154.57669750254536
 21
133.51494451379006
 31
24.99999999999818
 39
0.0
210
0.0
220
1.0
230
0.0
  0
LINE
  5
269
330
70
100
AcDbEntity
  8
Visible
  6
ByLayer
284
     0
100
AcDbLine
 10
154.57669750254536
 20
133.51494451379006
 30
24.99999999999818
 11
169.57669750254536
 21
133.51494451379006
 31
24.99999999999818
 39
0.0
210
0.0
220
1.0
230
0.0
  0
LINE
  5
26A
330
70
100
AcDbEntity
  8
Visible
  6
ByLayer
284
     0
100
AcDbLine
 10
169.57669750254536
 20
83.51494451379007
 30
24.99999999999818
 11
169.57669750254536
 21
133.51494451379006
 31
24.99999999999818
 39
0.0
210
0.0
220
1.0
230
0.0
  0
LINE
  5
26B
330
70
100
AcDbEntity
  8
Visible
  6
ByLayer
284
     0
100
AcDbLine
 10
119.57669750254536
 20
83.51494451379007
 30
24.99999999999818
 11
169.57669750254536
 21
83.51494451379007
 31
24.99999999999818
 39
0.0
210
0.0
220
1.0
230
0.0
  0
LINE
  5
26C
330
70
100
AcDbEntity
  8
Visible
  6
ByLayer
284
     0
100
AcDbLine
 10
119.57669750254536
 20
98.51494451379007
 30
24.99999999999818
 11
154.57669750254536
 21
98.51494451379007
 31
24.99999999999818
 39
0.0
210
0.0
220
1.0
230
0.0
  0
LINE
  5
26D
330
70
100
AcDbEntity
  8
Visible
  6
ByLayer
284
     0
100
AcDbLine
 10
119.57669750254536
 20
83.51494451379007
 30
24.99999999999818
 11
119.57669750254536
 21
98.51494451379007
 31
24.99999999999818
 39
0.0
210
0.0
220
1.0
230
0.0
  0
LINE
  5
26E
330
70
100
AcDbEntity
  8
Visible
  6
ByLayer
284
     0
100
AcDbLine
 10
312.29498762058029
 20
98.51494451379007
 30
-9.99999999998909
 11
312.29498762058029
 21
133.51494451379006
 31
-9.99999999998909
 39
0.0
210
0.0
220
1.0
230
0.0
  0
LINE
  5
26F
330
70
100
AcDbEntity
  8
Visible
  6
ByLayer
284
     0
100
AcDbLine
 10
262.29498762058029
 20
133.51494451379006
 30
-10.00000000000546
 11
312.29498762058029
 21
133.51494451379006
 31
-9.99999999998909
 39
0.0
210
0.0
220
1.0
230
0.0
  0
LINE
  5
270
330
70
100
AcDbEntity
  8
Visible
  6
ByLayer
284
     0
100
AcDbLine
 10
262.29498762058029
 20
98.51494451379007
 30
-10.00000000000546
 11
262.29498762058029
 21
133.51494451379006
 31
-10.00000000000546
 39
0.0
210
0.0
220
1.0
230
0.0
  0
LINE
  5
271
330
70
100
AcDbEntity
  8
Visible
  6
ByLayer
284
     0
100
AcDbLine
 10
262.29498762056937
 20
83.51494451379007
 30
24.99999999999454
 11
262.29498762056937
 21
98.51494451379007
 31
24.99999999999454
 39
0.0
210
0.0
220
1.0
230
0.0
  0
LINE
  5
272
330
70
100
AcDbEntity
  8
Visible
  6
ByLayer
284
     0
100
AcDbLine
 10
312.29498762056937
 20
83.51494451379007
 30
25.00000000001091
 11
312.29498762056937
 21
98.51494451379007
 31
25.00000000001091
 39
0.0
210
0.0
220
1.0
230
0.0
  0
LINE
  5
273
330
70
100
AcDbEntity
  8
Visible
  6
ByLayer
284
     0
100
AcDbLine
 10
262.29498762056937
 20
83.51494451379007
 30
24.99999999999454
 11
312.29498762056937
 21
83.51494451379007
 31
25.00000000001091
 39
0.0
210
0.0
220
1.0
230
0.0
  0
LINE
  5
274
330
70
100
AcDbEntity
  8
Visible
  6
ByLayer
284
     0
100
AcDbLine
 10
262.29498762056937
 20
98.51494451379007
 30
24.99999999999454
 11
312.29498762056937
 21
98.51494451379007
 31
25.00000000001091
 39
0.0
210
0.0
220
1.0
230
0.0
  0
LINE
  5
275
330
70
100
AcDbEntity
  8
Visible
  6
ByLayer
284
     0
100
AcDbLine
 10
154.57669750254718
 20
253.47010943127862
 30
25.0
 11
154.57669750254718
 21
203.47010943127862
 31
25.0
 39
0.0
  0
LINE
  5
276
330
70
100
AcDbEntity
  8
Visible
  6
ByLayer
284
     0
100
AcDbLine
 10
169.57669750254718
 20
203.47010943127862
 30
25.0
 11
169.57669750254718
 21
253.47010943127862
 31
25.0
 39
0.0
  0
LINE
  5
277
330
70
100
AcDbEntity
  8
Visible
  6
ByLayer
284
     0
100
AcDbLine
 10
169.57669750254718
 20
253.47010943127862
 30
25.0
 11
154.57669750254718
 21
253.47010943127862
 31
25.0
 39
0.0
  0
LINE
  5
278
330
70
100
AcDbEntity
  8
Visible
  6
ByLayer
284
     0
100
AcDbLine
 10
154.57669750254718
 20
203.47010943127862
 30
25.0
 11
169.57669750254718
 21
203.47010943127862
 31
25.0
 39
0.0
  0
LINE
  5
279
330
70
100
AcDbEntity
  8
Visible
  6
ByLayer
284
     0
100
AcDbLine
 10
154.57669750254718
 20
253.47010943127862
 30
-10.0
 11
119.57669750254718
 21
253.47010943127862
 31
-10.0
 39
0.0
  0
LINE
  5
27A
330
70
100
AcDbEntity
  8
Visible
  6
ByLayer
284
     0
100
AcDbLine
 10
119.57669750254718
 20
203.47010943127862
 30
-10.0
 11
154.57669750254718
 21
203.47010943127862
 31
-10.0
 39
0.0
  0
LINE
  5
27B
330
70
100
AcDbEntity
  8
Visible
  6
ByLayer
284
     0
100
AcDbLine
 10
119.57669750254718
 20
253.47010943127862
 30
-10.0
 11
119.57669750254718
 21
203.47010943127862
 31
-10.0
 39
0.0
  0
LINE
  5
27C
330
70
100
AcDbEntity
  8
Visible
  6
ByLayer
284
     0
100
AcDbLine
 10
272.30102157537294
 20
208.62246800505548
 30
14.47464204720274
 11
272.30102157537294
 21
237.23661737454438
 31
34.62980158168865
 39
0.0
210
0.0
220
0.81754712484254
230
0.57586170098531
  0
LINE
  5
27D
330
70
100
AcDbEntity
  8
Visible
  6
ByLayer
284
     0
100
AcDbLine
 10
307.65636063469537
 20
257.59640306416384
 30
5.72514578589871
 11
272.30102157537294
 21
237.23661737454438
 31
34.62980158168865
 39
0.0
210
0.0
220
0.81754712484254
230
0.57586170098531
  0
LINE
  5
27E
330
70
100
AcDbEntity
  8
Visible
  6
ByLayer
284
     0
100
AcDbLine
 10
282.90762329317113
 20
231.12868166766054
 30
43.30119832042273
 11
318.26296235249356
 21
251.48846735728
 31
14.39654252463278
 39
0.0
210
0.0
220
0.81754712484254
230
0.57586170098531
  0
LINE
  5
27F
330
70
100
AcDbEntity
  8
Visible
  6
ByLayer
284
     0
100
AcDbLine
 10
318.26296235249356
 20
251.48846735728
 30
14.39654252463278
 11
307.65636063469537
 21
257.59640306416384
 31
5.72514578589871
 39
0.0
210
0.0
220
0.81754712484254
230
0.57586170098531
  0
LINE
  5
280
330
70
100
AcDbEntity
  8
Visible
  6
ByLayer
284
     0
100
AcDbLine
 10
272.30102157537294
 20
237.23661737454438
 30
34.62980158168865
 11
282.90762329317113
 21
231.12868166766054
 31
43.30119832042273
 39
0.0
210
0.0
220
0.81754712484254
230
0.57586170098531
  0
LINE
  5
281
330
70
100
AcDbEntity
  8
Visible
  6
ByLayer
284
     0
100
AcDbLine
 10
318.26296235249356
 20
210.61111111515299
 30
-14.39654252463281
 11
318.26296235249356
 21
251.48846735728
 31
14.39654252463278
 39
0.0
210
0.0
220
0.81754712484254
230
0.57586170098531
  0
LINE
  5
282
330
70
100
AcDbEntity
  8
Visible
  6
ByLayer
284
     0
100
AcDbLine
 10
282.90762329317113
 20
190.25132542553354
 30
14.50811327115714
 11
318.26296235249356
 21
210.61111111515299
 31
-14.39654252463281
 39
0.0
210
0.0
220
0.81754712484254
230
0.57586170098531
  0
LINE
  5
283
330
70
100
AcDbEntity
  8
Visible
  6
ByLayer
284
     0
100
AcDbLine
 10
282.90762329317113
 20
190.25132542553354
 30
14.50811327115714
 11
282.90762329317113
 21
231.12868166766054
 31
43.30119832042273
 39
0.0
210
0.0
220
0.81754712484254
230
0.57586170098531
  0
LINE
  5
284
330
70
100
AcDbEntity
  8
Visible
  6
ByLayer
284
     0
100
AcDbLine
 10
247.5522842338396
 20
210.61111111514708
 30
-14.39654252462462
 11
282.90762329317113
 21
190.25132542553354
 31
14.50811327115714
 39
0.0
210
0.0
220
0.81754712484254
230
0.57586170098531
  0
LINE
  5
285
330
70
100
AcDbEntity
  8
Visible
  6
ByLayer
284
     0
100
AcDbLine
 10
247.5522842338396
 20
222.87431798778519
 30
-5.75861700984495
 11
272.30102157537294
 21
208.62246800505548
 31
14.47464204720274
 39
0.0
210
0.0
220
0.81754712484254
230
0.57586170098531
  0
LINE
  5
286
330
70
100
AcDbEntity
  8
Visible
  6
ByLayer
284
     0
100
AcDbLine
 10
247.5522842338396
 20
210.61111111514708
 30
-14.39654252462462
 11
247.5522842338396
 21
222.87431798778519
 31
-5.75861700984495
 39
0.0
210
0.0
220
0.81754712484254
230
0.57586170098531
  0
LINE
  5
287
330
70
100
AcDbEntity
  8
Visible
  6
ByLayer
284
     0
100
AcDbLine
 10
272.30102157537294
 20
237.12616797052308
 30
-25.99187606690446
 11
247.5522842338396
 21
222.87431798778519
 31
-5.75861700984495
 39
0.0
210
0.0
220
0.81754712484254
230
0.57586170098531
  0
ENDSEC
  0
EOF
