999
LibreDWG 0.10.1.932_173e
  0
SECTION
  2
HEADER
  9
$ACADVER
  1
AC1024
  9
$HANDSEED
  5
273
  0
ENDSEC
  0
SECTION
  2
ENTITIES
  0
INSERT
  5
C5
330
70
100
AcDbEntity
  8
Border
  6
ByLayer
284
     0
100
AcDbBlockReference
  2
ISO_A3_SHEET
 10
0.0
 20
0.0
 30
0.0
 50
0.0
210
0.0
220
0.0
230
1.0
  0
INSERT
  5
10B
330
70
100
AcDbEntity
  8
TitleBlock
  6
ByLayer
284
     0
100
AcDbBlockReference
  2
ISO_TITLEBLOCK
 66
     1
 10
410.0
 20
10.0
 30
0.0
 50
0.0
210
0.0
220
0.0
230
1.0
  0
ATTRIB
  5
138
330
10B
100
AcDbEntity
  8
TitleBlock
  6
ByLayer
284
     0
  7
FusionTitle
100
AcDbText
 10
360.0
 20
11.5
 39
0.0
 40
3.5
  1

100
AcDbAttribute
280
     0
  2
DATE_OF_ISSUE
 73
     0
 70
     0
  0
ATTRIB
  5
139
330
10B
100
AcDbEntity
  8
TitleBlock
  6
ByLayer
284
     0
  7
FusionTitle
100
AcDbText
 10
354.0
 20
13.1
 11
10.0
 21
20.0
 39
0.0
 40
3.5
  1

 72
     4
100
AcDbAttribute
280
     0
  2
REV
 73
     0
 70
     0
  0
ATTRIB
  5
13A
330
10B
100
AcDbEntity
  8
TitleBlock
  6
ByLayer
284
     0
  7
FusionTitle
100
AcDbText
 10
289.0
 20
11.5
 39
0.0
 40
5.0
  1

100
AcDbAttribute
280
     0
  2
TITLE_3
 73
     0
 70
     0
  0
ATTRIB
  5
13B
330
10B
100
AcDbEntity
  8
TitleBlock
  6
ByLayer
284
     0
  7
FusionTitle
100
AcDbText
 10
350.0
 20
38.5
 39
0.0
 40
3.5
  1

100
AcDbAttribute
280
     0
  2
DOCUMENT_STATUS
 73
     0
 70
     0
  0
ATTRIB
  5
13C
330
10B
100
AcDbEntity
  8
TitleBlock
  6
ByLayer
284
     0
  7
FusionTitle
100
AcDbText
 10
289.0
 20
38.5
 39
0.0
 40
3.5
  1

100
AcDbAttribute
280
     0
  2
DOCUMENT_TYPE
 73
     0
 70
     0
  0
ATTRIB
  5
13D
330
10B
100
AcDbEntity
  8
TitleBlock
  6
ByLayer
284
     0
  7
FusionTitle
100
AcDbText
 10
409.0
 20
48.5
 11
10.0
 21
20.0
 39
0.0
 40
3.5
  1

 72
     2
100
AcDbAttribute
280
     0
  2
APPROVED_DATE
 73
     0
 70
     0
  0
ATTRIB
  5
13E
330
10B
100
AcDbEntity
  8
TitleBlock
  6
ByLayer
284
     0
  7
FusionTitle
100
AcDbText
 10
323.52864938608457
 20
48.5
 11
348.0
 21
20.0
 39
0.0
 40
3.5
  1
05.07.2020
 72
     2
100
AcDbAttribute
280
     0
  2
CREATED_DATE
 73
     0
 70
     0
  0
ATTRIB
  5
13F
330
10B
100
AcDbEntity
  8
TitleBlock
  6
ByLayer
284
     0
  7
FusionTitle
100
AcDbText
 10
399.10146657571624
 20
11.35
 11
402.5
 21
13.1
 39
0.0
 40
3.5
  1
1/1
 72
     4
100
AcDbAttribute
280
     0
  2
SHEET
 73
     0
 70
     0
  0
ATTRIB
  5
140
330
10B
100
AcDbEntity
  8
TitleBlock
  6
ByLayer
284
     0
  7
FusionTitle
100
AcDbText
 10
289.0
 20
19.0
 39
0.0
 40
5.0
  1

100
AcDbAttribute
280
     0
  2
TITLE_2
 73
     0
 70
     0
  0
ATTRIB
  5
141
330
10B
100
AcDbEntity
  8
TitleBlock
  6
ByLayer
284
     0
  7
FusionTitle
100
AcDbText
 10
371.34345156889498
 20
24.13240109140519
 11
10.359375
 21
26.6
 39
0.0
 40
5.0
  1
P005
 72
     4
100
AcDbAttribute
280
     0
  2
DRAWING_NUMBER
 73
     0
 70
     0
1001
FUSIONTITLEBLOCKATTRIBUTEOVERRIDE
1070
     1
  0
ATTRIB
  5
142
330
10B
100
AcDbEntity
  8
TitleBlock
  6
ByLayer
284
     0
  7
FusionTitle
100
AcDbText
 10
289.0
 20
26.5
 39
0.0
 40
5.0
  1
P005
100
AcDbAttribute
280
     0
  2
TITLE_1
 73
     0
 70
     0
  0
ATTRIB
  5
143
330
10B
100
AcDbEntity
  8
TitleBlock
  6
ByLayer
284
     0
  7
FusionTitle
100
AcDbText
 10
350.0
 20
48.5
 39
0.0
 40
3.5
  1

100
AcDbAttribute
280
     0
  2
APPROVED_BY
 73
     0
 70
     0
  0
ATTRIB
  5
144
330
10B
100
AcDbEntity
  8
TitleBlock
  6
ByLayer
284
     0
  7
FusionTitle
100
AcDbText
 10
289.0
 20
48.5
 39
0.0
 40
3.5
  1

100
AcDbAttribute
280
     0
  2
CREATED_BY
 73
     0
 70
     0
1001
FUSIONTITLEBLOCKATTRIBUTEOVERRIDE
1070
     1
  0
ATTRIB
  5
145
330
10B
100
AcDbEntity
  8
TitleBlock
  6
ByLayer
284
     0
  7
FusionTitle
100
AcDbText
 10
255.0
 20
48.5
 39
0.0
 40
3.5
  1

100
AcDbAttribute
280
     0
  2
TECHNICAL_REFERENCE
 73
     0
 70
     0
  0
ATTRIB
  5
146
330
10B
100
AcDbEntity
  8
TitleBlock
  6
ByLayer
284
     0
  7
FusionTitle
100
AcDbText
 10
231.0
 20
48.5
 39
0.0
 40
3.5
  1

100
AcDbAttribute
280
     0
  2
DEPT
 73
     0
 70
     0
  0
SEQEND
  5
147
330
10B
100
AcDbEntity
  8
TitleBlock
  6
ByLayer
284
     0
  0
DIMENSION
  5
148
330
70
100
AcDbEntity
  8
Dimensions
  6
ByLayer
284
     0
100
AcDbDimension
280
     0
  2

 10
183.2887108477855
 20
192.05079676928864
 30
0.0
 11
180.00170539075961
 21
142.05079676928852
 31
0.0
 70
   128
  1

  1
1.0
  2
1.0
 71
     5
 72
     1
 41
1.0
 42
100.00000000000006
 73
     0
 74
     0
 75
     0
 12
0.0
 22
0.0
  3
ISO-25
100
AcDbAlignedDimension
 13
172.41557913522411
 23
92.05079676928852
 33
0.0
 14
172.41557913522411
 24
192.05079676928852
 34
0.0
1001
ACAD_DIMASSOC_CALC_DIMLFAC
1040
-1.0
1001
ACAD_DIMASSOC_DIMLFAC
1040
-1.0
1001
ACAD_DIMASSOC_OVERRIDDEN_DIMLFAC
1040
0.0
1001
ACAD
1000
䐀匀吀夀䰀䔀
1002
{
1070
   144
1040
1.0
1070
   176
1070
   256
1070
   177
1070
   256
1002
}
  0
DIMENSION
  5
156
330
70
100
AcDbEntity
  8
Dimensions
  6
ByLayer
284
     0
100
AcDbDimension
280
     0
  2

 10
172.41557913522411
 20
201.95029170590018
 30
0.0
 11
147.41557913522411
 21
205.2372971629261
 31
0.0
 70
   128
  1

  1
1.0
  2
1.0
 71
     5
 72
     1
 41
1.0
 42
50.0
 73
     0
 74
     0
 75
     0
 12
0.0
 22
0.0
  3
ISO-25
100
AcDbAlignedDimension
 13
122.41557913522411
 23
192.05079676928852
 33
0.0
 14
172.41557913522411
 24
192.05079676928852
 34
0.0
1001
ACAD_DIMASSOC_CALC_DIMLFAC
1040
-1.0
1001
ACAD_DIMASSOC_DIMLFAC
1040
-1.0
1001
ACAD_DIMASSOC_OVERRIDDEN_DIMLFAC
1040
0.0
1001
ACAD
1000
䐀匀吀夀䰀䔀
1002
{
1070
   144
1040
1.0
1070
   176
1070
   256
1070
   177
1070
   256
1002
}
  0
DIMENSION
  5
163
330
70
100
AcDbEntity
  8
Dimensions
  6
ByLayer
284
     0
100
AcDbDimension
280
     0
  2
*D6
 10
182.31507407183616
 20
241.25098315343178
 30
0.0
 11
179.02806861481031
 21
253.75098315343166
 31
0.0
 70
   128
  1

  1
1.0
  2
1.0
 71
     5
 72
     1
 41
1.0
 42
24.99999999999997
 73
     0
 74
     0
 75
     0
 12
0.0
 22
0.0
  3
ISO-25
100
AcDbAlignedDimension
 13
172.41557913522411
 23
266.25098315343166
 33
0.0
 14
172.41557913522411
 24
241.25098315343166
 34
0.0
1001
ACAD_DIMASSOC_CALC_DIMLFAC
1040
-1.0
1001
ACAD_DIMASSOC_DIMLFAC
1040
-1.0
1001
ACAD_DIMASSOC_OVERRIDDEN_DIMLFAC
1040
0.0
1001
ACAD
1000
䐀匀吀夀䰀䔀
1002
{
1070
   144
1040
1.0
1070
   176
1070
   256
1070
   177
1070
   256
1002
}
  0
LINE
  5
1E7
330
70
100
AcDbEntity
  8
Visible
  6
ByLayer
284
     0
100
AcDbLine
 10
172.41557913522229
 20
92.05079676928852
 30
12.49999999999818
 11
172.41557913522229
 21
192.05079676928852
 31
12.49999999999818
 39
0.0
210
0.0
220
1.0
230
0.0
  0
LINE
  5
1E8
330
70
100
AcDbEntity
  8
Visible
  6
ByLayer
284
     0
100
AcDbLine
 10
122.41557913522229
 20
92.05079676928852
 30
12.49999999999818
 11
172.41557913522229
 21
92.05079676928852
 31
12.49999999999818
 39
0.0
210
0.0
220
1.0
230
0.0
  0
LINE
  5
1E9
330
70
100
AcDbEntity
  8
Visible
  6
ByLayer
284
     0
100
AcDbLine
 10
122.41557913522229
 20
192.05079676928852
 30
12.49999999999818
 11
172.41557913522229
 21
192.05079676928852
 31
12.49999999999818
 39
0.0
210
0.0
220
1.0
230
0.0
  0
LINE
  5
1EA
330
70
100
AcDbEntity
  8
Visible
  6
ByLayer
284
     0
100
AcDbLine
 10
122.41557913522229
 20
92.05079676928852
 30
12.49999999999818
 11
122.41557913522229
 21
192.05079676928852
 31
12.49999999999818
 39
0.0
210
0.0
220
1.0
230
0.0
  0
LINE
  5
1EB
330
70
100
AcDbEntity
  8
Visible
  6
ByLayer
284
     0
100
AcDbLine
 10
304.99035771084709
 20
92.05079676928852
 30
24.99999999999818
 11
304.99035771084709
 21
192.05079676928852
 31
24.99999999999818
 39
0.0
210
0.0
220
1.0
230
0.0
  0
LINE
  5
1EC
330
70
100
AcDbEntity
  8
Visible
  6
ByLayer
284
     0
100
AcDbLine
 10
329.99035771084709
 20
92.05079676928852
 30
25.00000000000546
 11
329.99035771084709
 21
192.05079676928852
 31
25.00000000000546
 39
0.0
210
0.0
220
1.0
230
0.0
  0
LINE
  5
1ED
330
70
100
AcDbEntity
  8
Visible
  6
ByLayer
284
     0
100
AcDbLine
 10
304.99035771084709
 20
92.05079676928852
 30
24.99999999999818
 11
329.99035771084709
 21
92.05079676928852
 31
25.00000000000546
 39
0.0
210
0.0
220
1.0
230
0.0
  0
LINE
  5
1EE
330
70
100
AcDbEntity
  8
Visible
  6
ByLayer
284
     0
100
AcDbLine
 10
304.99035771084709
 20
192.05079676928852
 30
24.99999999999818
 11
329.99035771084709
 21
192.05079676928852
 31
25.00000000000546
 39
0.0
210
0.0
220
1.0
230
0.0
  0
LINE
  5
1EF
330
70
100
AcDbEntity
  8
Visible
  6
ByLayer
284
     0
100
AcDbLine
 10
172.41557913522047
 20
241.25098315342802
 30
49.99999999999629
 11
122.41557913522047
 21
241.25098315342802
 31
49.99999999999629
 39
0.0
210
0.0
220
0.0000000000003
230
-1.0
  0
LINE
  5
1F0
330
70
100
AcDbEntity
  8
Visible
  6
ByLayer
284
     0
100
AcDbLine
 10
172.41557913522047
 20
266.25098315342802
 30
50.00000000000371
 11
172.41557913522047
 21
241.25098315342802
 31
49.99999999999629
 39
0.0
210
0.0
220
0.0000000000003
230
-1.0
  0
LINE
  5
1F1
330
70
100
AcDbEntity
  8
Visible
  6
ByLayer
284
     0
100
AcDbLine
 10
122.41557913522047
 20
266.25098315342802
 30
50.00000000000371
 11
172.41557913522047
 21
266.25098315342802
 31
50.00000000000371
 39
0.0
210
0.0
220
0.0000000000003
230
-1.0
  0
LINE
  5
1F2
330
70
100
AcDbEntity
  8
Visible
  6
ByLayer
284
     0
100
AcDbLine
 10
122.41557913522047
 20
241.25098315342802
 30
49.99999999999629
 11
122.41557913522047
 21
266.25098315342802
 31
50.00000000000371
 39
0.0
210
0.0
220
0.0000000000003
230
-1.0
  0
ENDSEC
  0
EOF
