999
LibreDWG 0.10.1.932_173e
  0
SECTION
  2
HEADER
  9
$ACADVER
  1
AC1024
  9
$HANDSEED
  5
388
  0
ENDSEC
  0
SECTION
  2
ENTITIES
  0
INSERT
  5
E9
330
70
100
AcDbEntity
  8
Border
  6
ByLayer
284
     0
100
AcDbBlockReference
  2
ISO_A3_SHEET
 10
0.0
 20
0.0
 30
0.0
 50
0.0
210
0.0
220
0.0
230
1.0
  0
INSERT
  5
12F
330
70
100
AcDbEntity
  8
TitleBlock
  6
ByLayer
284
     0
100
AcDbBlockReference
  2
ISO_TITLEBLOCK
 66
     1
 10
410.0
 20
10.0
 30
0.0
 50
0.0
210
0.0
220
0.0
230
1.0
  0
ATTRIB
  5
15C
330
12F
100
AcDbEntity
  8
TitleBlock
  6
ByLayer
284
     0
  7
FusionTitle
100
AcDbText
 10
360.0
 20
11.5
 39
0.0
 40
3.5
  1

100
AcDbAttribute
280
     0
  2
DATE_OF_ISSUE
 73
     0
 70
     0
  0
ATTRIB
  5
15D
330
12F
100
AcDbEntity
  8
TitleBlock
  6
ByLayer
284
     0
  7
FusionTitle
100
AcDbText
 10
354.0
 20
13.1
 11
10.0
 21
20.0
 39
0.0
 40
3.5
  1

 72
     4
100
AcDbAttribute
280
     0
  2
REV
 73
     0
 70
     0
  0
ATTRIB
  5
15E
330
12F
100
AcDbEntity
  8
TitleBlock
  6
ByLayer
284
     0
  7
FusionTitle
100
AcDbText
 10
289.0
 20
11.5
 39
0.0
 40
5.0
  1

100
AcDbAttribute
280
     0
  2
TITLE_3
 73
     0
 70
     0
  0
ATTRIB
  5
15F
330
12F
100
AcDbEntity
  8
TitleBlock
  6
ByLayer
284
     0
  7
FusionTitle
100
AcDbText
 10
350.0
 20
38.5
 39
0.0
 40
3.5
  1

100
AcDbAttribute
280
     0
  2
DOCUMENT_STATUS
 73
     0
 70
     0
  0
ATTRIB
  5
160
330
12F
100
AcDbEntity
  8
TitleBlock
  6
ByLayer
284
     0
  7
FusionTitle
100
AcDbText
 10
289.0
 20
38.5
 39
0.0
 40
3.5
  1

100
AcDbAttribute
280
     0
  2
DOCUMENT_TYPE
 73
     0
 70
     0
  0
ATTRIB
  5
161
330
12F
100
AcDbEntity
  8
TitleBlock
  6
ByLayer
284
     0
  7
FusionTitle
100
AcDbText
 10
409.0
 20
48.5
 11
10.0
 21
20.0
 39
0.0
 40
3.5
  1

 72
     2
100
AcDbAttribute
280
     0
  2
APPROVED_DATE
 73
     0
 70
     0
  0
ATTRIB
  5
162
330
12F
100
AcDbEntity
  8
TitleBlock
  6
ByLayer
284
     0
  7
FusionTitle
100
AcDbText
 10
323.52864938608457
 20
48.5
 11
348.0
 21
20.0
 39
0.0
 40
3.5
  1
05.07.2020
 72
     2
100
AcDbAttribute
280
     0
  2
CREATED_DATE
 73
     0
 70
     0
  0
ATTRIB
  5
163
330
12F
100
AcDbEntity
  8
TitleBlock
  6
ByLayer
284
     0
  7
FusionTitle
100
AcDbText
 10
399.10146657571624
 20
11.35
 11
402.5
 21
13.1
 39
0.0
 40
3.5
  1
1/1
 72
     4
100
AcDbAttribute
280
     0
  2
SHEET
 73
     0
 70
     0
  0
ATTRIB
  5
164
330
12F
100
AcDbEntity
  8
TitleBlock
  6
ByLayer
284
     0
  7
FusionTitle
100
AcDbText
 10
289.0
 20
19.0
 39
0.0
 40
5.0
  1

100
AcDbAttribute
280
     0
  2
TITLE_2
 73
     0
 70
     0
  0
ATTRIB
  5
165
330
12F
100
AcDbEntity
  8
TitleBlock
  6
ByLayer
284
     0
  7
FusionTitle
100
AcDbText
 10
371.34345156889498
 20
24.13240109140519
 11
10.359375
 21
26.6
 39
0.0
 40
5.0
  1
P006
 72
     4
100
AcDbAttribute
280
     0
  2
DRAWING_NUMBER
 73
     0
 70
     0
1001
FUSIONTITLEBLOCKATTRIBUTEOVERRIDE
1070
     1
  0
ATTRIB
  5
166
330
12F
100
AcDbEntity
  8
TitleBlock
  6
ByLayer
284
     0
  7
FusionTitle
100
AcDbText
 10
289.0
 20
26.5
 39
0.0
 40
5.0
  1
P006
100
AcDbAttribute
280
     0
  2
TITLE_1
 73
     0
 70
     0
  0
ATTRIB
  5
167
330
12F
100
AcDbEntity
  8
TitleBlock
  6
ByLayer
284
     0
  7
FusionTitle
100
AcDbText
 10
350.0
 20
48.5
 39
0.0
 40
3.5
  1

100
AcDbAttribute
280
     0
  2
APPROVED_BY
 73
     0
 70
     0
  0
ATTRIB
  5
168
330
12F
100
AcDbEntity
  8
TitleBlock
  6
ByLayer
284
     0
  7
FusionTitle
100
AcDbText
 10
289.0
 20
48.5
 39
0.0
 40
3.5
  1

100
AcDbAttribute
280
     0
  2
CREATED_BY
 73
     0
 70
     0
1001
FUSIONTITLEBLOCKATTRIBUTEOVERRIDE
1070
     1
  0
ATTRIB
  5
169
330
12F
100
AcDbEntity
  8
TitleBlock
  6
ByLayer
284
     0
  7
FusionTitle
100
AcDbText
 10
255.0
 20
48.5
 39
0.0
 40
3.5
  1

100
AcDbAttribute
280
     0
  2
TECHNICAL_REFERENCE
 73
     0
 70
     0
  0
ATTRIB
  5
16A
330
12F
100
AcDbEntity
  8
TitleBlock
  6
ByLayer
284
     0
  7
FusionTitle
100
AcDbText
 10
231.0
 20
48.5
 39
0.0
 40
3.5
  1

100
AcDbAttribute
280
     0
  2
DEPT
 73
     0
 70
     0
  0
SEQEND
  5
16B
330
12F
100
AcDbEntity
  8
TitleBlock
  6
ByLayer
284
     0
  0
DIMENSION
  5
16C
330
70
100
AcDbEntity
  8
Dimensions
  6
ByLayer
284
     0
100
AcDbDimension
280
     0
  2

 10
106.6726933999189
 20
74.07063013213926
 30
0.0
 11
131.6726933999189
 21
77.35763558916518
 31
0.0
 70
   128
  1

  1
1.0
  2
1.0
 71
     5
 72
     1
 41
1.0
 42
100.0
 73
     0
 74
     0
 75
     0
 12
0.0
 22
0.0
  3
ISO-25
100
AcDbAlignedDimension
 13
156.6726933999189
 23
83.97012506875092
 33
0.0
 14
106.6726933999189
 24
83.97012506875092
 34
0.0
1001
ACAD_DIMASSOC_CALC_DIMLFAC
1040
-2.0
1001
ACAD_DIMASSOC_DIMLFAC
1040
-2.0
1001
ACAD_DIMASSOC_OVERRIDDEN_DIMLFAC
1040
0.0
1001
ACAD
1000
䐀匀吀夀䰀䔀
1002
{
1070
   144
1040
2.0
1070
   176
1070
   256
1070
   177
1070
   256
1002
}
  0
DIMENSION
  5
17A
330
70
100
AcDbEntity
  8
Dimensions
  6
ByLayer
284
     0
100
AcDbDimension
280
     0
  2

 10
166.57218833653096
 20
83.97012506875096
 30
0.0
 11
163.28398915508484
 21
91.4701250687509
 31
0.0
 70
   128
  1

  1
1.0
  2
1.0
 71
     5
 72
     1
 41
1.0
 42
30.00000000000003
 73
     0
 74
     0
 75
     0
 12
0.0
 22
0.0
  3
ISO-25
100
AcDbAlignedDimension
 13
156.6726933999189
 23
98.97012506875092
 33
0.0
 14
156.6726933999189
 24
83.97012506875092
 34
0.0
1001
ACAD_DIMASSOC_CALC_DIMLFAC
1040
-2.0
1001
ACAD_DIMASSOC_DIMLFAC
1040
-2.0
1001
ACAD_DIMASSOC_OVERRIDDEN_DIMLFAC
1040
0.0
1001
ACAD
1000
䐀匀吀夀䰀䔀
1002
{
1070
   144
1040
2.0
1070
   176
1070
   256
1070
   177
1070
   256
1002
}
  0
DIMENSION
  5
187
330
70
100
AcDbEntity
  8
Dimensions
  6
ByLayer
284
     0
100
AcDbDimension
280
     0
  2

 10
166.57218833653101
 20
98.97012506875099
 30
0.0
 11
163.2839891550849
 21
106.4701250687509
 31
0.0
 70
   128
  1

  1
1.0
  2
1.0
 71
     5
 72
     1
 41
1.0
 42
30.0
 73
     0
 74
     0
 75
     0
 12
0.0
 22
0.0
  3
ISO-25
100
AcDbAlignedDimension
 13
141.6726933999189
 23
113.97012506875092
 33
0.0
 14
141.6726933999189
 24
98.97012506875092
 34
0.0
1001
ACAD_DIMASSOC_CALC_DIMLFAC
1040
-2.0
1001
ACAD_DIMASSOC_DIMLFAC
1040
-2.0
1001
ACAD_DIMASSOC_OVERRIDDEN_DIMLFAC
1040
0.0
1001
ACAD
1000
䐀匀吀夀䰀䔀
1002
{
1070
   144
1040
2.0
1070
   176
1070
   256
1070
   177
1070
   256
1002
}
  0
DIMENSION
  5
194
330
70
100
AcDbEntity
  8
Dimensions
  6
ByLayer
284
     0
100
AcDbDimension
280
     0
  2

 10
121.6726933999189
 20
123.86962000536258
 30
0.0
 11
114.1726933999189
 21
127.15781918680869
 31
0.0
 70
   128
  1

  1
1.0
  2
1.0
 71
     5
 72
     1
 41
1.0
 42
30.0
 73
     0
 74
     0
 75
     0
 12
0.0
 22
0.0
  3
ISO-25
100
AcDbAlignedDimension
 13
106.6726933999189
 23
98.97012506875092
 33
0.0
 14
121.6726933999189
 24
98.97012506875092
 34
0.0
1001
ACAD_DIMASSOC_CALC_DIMLFAC
1040
-2.0
1001
ACAD_DIMASSOC_DIMLFAC
1040
-2.0
1001
ACAD_DIMASSOC_OVERRIDDEN_DIMLFAC
1040
0.0
1001
ACAD
1000
䐀匀吀夀䰀䔀
1002
{
1070
   144
1040
2.0
1070
   176
1070
   256
1070
   177
1070
   256
1002
}
  0
DIMENSION
  5
1A1
330
70
100
AcDbEntity
  8
Dimensions
  6
ByLayer
284
     0
100
AcDbDimension
280
     0
  2

 10
141.6726933999189
 20
123.86962000536258
 30
0.0
 11
131.6726933999189
 21
127.1566254623885
 31
0.0
 70
   128
  1

  1
1.0
  2
1.0
 71
     5
 72
     1
 41
1.0
 42
40.0
 73
     0
 74
     0
 75
     0
 12
0.0
 22
0.0
  3
ISO-25
100
AcDbAlignedDimension
 13
121.6726933999189
 23
113.97012506875092
 33
0.0
 14
141.6726933999189
 24
113.97012506875092
 34
0.0
1001
ACAD_DIMASSOC_CALC_DIMLFAC
1040
-2.0
1001
ACAD_DIMASSOC_DIMLFAC
1040
-2.0
1001
ACAD_DIMASSOC_OVERRIDDEN_DIMLFAC
1040
0.0
1001
ACAD
1000
䐀匀吀夀䰀䔀
1002
{
1070
   144
1040
2.0
1070
   176
1070
   256
1070
   177
1070
   256
1002
}
  0
DIMENSION
  5
1AE
330
70
100
AcDbEntity
  8
Dimensions
  6
ByLayer
284
     0
100
AcDbDimension
280
     0
  2
*D9
 10
275.7151484496253
 20
69.27164025891592
 30
0.0
 11
300.7151484496253
 21
72.55864571594185
 31
0.0
 70
   128
  1

  1
1.0
  2
1.0
 71
     5
 72
     1
 41
1.0
 42
100.0
 73
     0
 74
     0
 75
     0
 12
0.0
 22
0.0
  3
ISO-25
100
AcDbAlignedDimension
 13
325.7151484496253
 23
83.97012506875092
 33
0.0
 14
275.7151484496253
 24
83.97012506875092
 34
0.0
1001
ACAD_DIMASSOC_CALC_DIMLFAC
1040
-2.0
1001
ACAD_DIMASSOC_DIMLFAC
1040
-2.0
1001
ACAD_DIMASSOC_OVERRIDDEN_DIMLFAC
1040
0.0
1001
ACAD
1000
䐀匀吀夀䰀䔀
1002
{
1070
   144
1040
2.0
1070
   176
1070
   256
1070
   177
1070
   256
1002
}
  0
LINE
  5
2A7
330
70
100
AcDbEntity
  8
Visible
  6
ByLayer
284
     0
100
AcDbLine
 10
156.67269339991799
 20
98.97012506875092
 30
24.99999999999909
 11
156.67269339991799
 21
83.97012506875092
 31
24.99999999999909
 39
0.0
210
0.0
220
1.0
230
0.0
  0
LINE
  5
2A8
330
70
100
AcDbEntity
  8
Visible
  6
ByLayer
284
     0
100
AcDbLine
 10
141.67269339991799
 20
98.97012506875092
 30
24.99999999999909
 11
156.67269339991799
 21
98.97012506875092
 31
24.99999999999909
 39
0.0
210
0.0
220
1.0
230
0.0
  0
LINE
  5
2A9
330
70
100
AcDbEntity
  8
Visible
  6
ByLayer
284
     0
100
AcDbLine
 10
141.67269339991799
 20
113.97012506875092
 30
24.99999999999909
 11
141.67269339991799
 21
98.97012506875092
 31
24.99999999999909
 39
0.0
210
0.0
220
1.0
230
0.0
  0
LINE
  5
2AA
330
70
100
AcDbEntity
  8
Visible
  6
ByLayer
284
     0
100
AcDbLine
 10
121.67269339991799
 20
113.97012506875092
 30
24.99999999999909
 11
141.67269339991799
 21
113.97012506875092
 31
24.99999999999909
 39
0.0
210
0.0
220
1.0
230
0.0
  0
LINE
  5
2AB
330
70
100
AcDbEntity
  8
Visible
  6
ByLayer
284
     0
100
AcDbLine
 10
121.67269339991799
 20
98.97012506875092
 30
24.99999999999909
 11
121.67269339991799
 21
113.97012506875092
 31
24.99999999999909
 39
0.0
210
0.0
220
1.0
230
0.0
  0
LINE
  5
2AC
330
70
100
AcDbEntity
  8
Visible
  6
ByLayer
284
     0
100
AcDbLine
 10
106.67269339991799
 20
98.97012506875092
 30
24.99999999999909
 11
121.67269339991799
 21
98.97012506875092
 31
24.99999999999909
 39
0.0
210
0.0
220
1.0
230
0.0
  0
LINE
  5
2AD
330
70
100
AcDbEntity
  8
Visible
  6
ByLayer
284
     0
100
AcDbLine
 10
106.67269339991799
 20
83.97012506875092
 30
24.99999999999909
 11
106.67269339991799
 21
98.97012506875092
 31
24.99999999999909
 39
0.0
210
0.0
220
1.0
230
0.0
  0
LINE
  5
2AE
330
70
100
AcDbEntity
  8
Visible
  6
ByLayer
284
     0
100
AcDbLine
 10
156.67269339991799
 20
83.97012506875092
 30
24.99999999999909
 11
106.67269339991799
 21
83.97012506875092
 31
24.99999999999909
 39
0.0
210
0.0
220
1.0
230
0.0
  0
LINE
  5
2AF
330
70
100
AcDbEntity
  8
Visible
  6
ByLayer
284
     0
100
AcDbLine
 10
325.71514844962712
 20
113.97012506875092
 30
10.00000000000909
 11
275.71514844962712
 21
113.97012506875092
 31
9.99999999999454
 39
0.0
210
0.0
220
1.0
230
0.0
  0
LINE
  5
2B0
330
70
100
AcDbEntity
  8
Visible
  6
ByLayer
284
     0
100
AcDbLine
 10
325.71514844962712
 20
98.97012506875092
 30
10.00000000000909
 11
325.71514844962712
 21
113.97012506875092
 31
10.00000000000909
 39
0.0
210
0.0
220
1.0
230
0.0
  0
LINE
  5
2B1
330
70
100
AcDbEntity
  8
Visible
  6
ByLayer
284
     0
100
AcDbLine
 10
275.71514844962712
 20
98.97012506875092
 30
9.99999999999454
 11
275.71514844962712
 21
113.97012506875092
 31
9.99999999999454
 39
0.0
210
0.0
220
1.0
230
0.0
  0
LINE
  5
2B2
330
70
100
AcDbEntity
  8
Visible
  6
ByLayer
284
     0
100
AcDbLine
 10
325.71514844962257
 20
98.97012506875092
 30
25.00000000000909
 11
275.71514844962257
 21
98.97012506875092
 31
24.99999999999454
 39
0.0
210
0.0
220
1.0
230
0.0
  0
LINE
  5
2B3
330
70
100
AcDbEntity
  8
Visible
  6
ByLayer
284
     0
100
AcDbLine
 10
325.71514844962257
 20
83.97012506875092
 30
25.00000000000909
 11
325.71514844962257
 21
98.97012506875092
 31
25.00000000000909
 39
0.0
210
0.0
220
1.0
230
0.0
  0
LINE
  5
2B4
330
70
100
AcDbEntity
  8
Visible
  6
ByLayer
284
     0
100
AcDbLine
 10
275.71514844962257
 20
83.97012506875092
 30
24.99999999999454
 11
275.71514844962257
 21
98.97012506875092
 31
24.99999999999454
 39
0.0
210
0.0
220
1.0
230
0.0
  0
LINE
  5
2B5
330
70
100
AcDbEntity
  8
Visible
  6
ByLayer
284
     0
100
AcDbLine
 10
325.71514844962257
 20
83.97012506875092
 30
25.00000000000909
 11
275.71514844962257
 21
83.97012506875092
 31
24.99999999999454
 39
0.0
210
0.0
220
1.0
230
0.0
  0
LINE
  5
2B6
330
70
100
AcDbEntity
  8
Visible
  6
ByLayer
284
     0
100
AcDbLine
 10
156.67269339991981
 20
209.40337650581114
 30
0.0
 11
156.67269339991981
 21
259.40337650581114
 31
0.0
 39
0.0
  0
LINE
  5
2B7
330
70
100
AcDbEntity
  8
Visible
  6
ByLayer
284
     0
100
AcDbLine
 10
141.67269339991981
 20
209.40337650581114
 30
0.0
 11
156.67269339991981
 21
209.40337650581114
 31
0.0
 39
0.0
  0
LINE
  5
2B8
330
70
100
AcDbEntity
  8
Visible
  6
ByLayer
284
     0
100
AcDbLine
 10
141.67269339991981
 20
259.40337650581114
 30
0.0
 11
156.67269339991981
 21
259.40337650581114
 31
0.0
 39
0.0
  0
LINE
  5
2B9
330
70
100
AcDbEntity
  8
Visible
  6
ByLayer
284
     0
100
AcDbLine
 10
141.67269339991981
 20
209.40337650581114
 30
15.0
 11
141.67269339991981
 21
259.40337650581114
 31
15.0
 39
0.0
  0
LINE
  5
2BA
330
70
100
AcDbEntity
  8
Visible
  6
ByLayer
284
     0
100
AcDbLine
 10
121.67269339991981
 20
209.40337650581114
 30
15.0
 11
141.67269339991981
 21
209.40337650581114
 31
15.0
 39
0.0
  0
LINE
  5
2BB
330
70
100
AcDbEntity
  8
Visible
  6
ByLayer
284
     0
100
AcDbLine
 10
121.67269339991981
 20
259.40337650581114
 30
15.0
 11
141.67269339991981
 21
259.40337650581114
 31
15.0
 39
0.0
  0
LINE
  5
2BC
330
70
100
AcDbEntity
  8
Visible
  6
ByLayer
284
     0
100
AcDbLine
 10
121.67269339991981
 20
209.40337650581114
 30
15.0
 11
121.67269339991981
 21
259.40337650581114
 31
15.0
 39
0.0
  0
LINE
  5
2BD
330
70
100
AcDbEntity
  8
Visible
  6
ByLayer
284
     0
100
AcDbLine
 10
106.67269339991981
 20
209.40337650581114
 30
0.0
 11
121.67269339991981
 21
209.40337650581114
 31
0.0
 39
0.0
  0
LINE
  5
2BE
330
70
100
AcDbEntity
  8
Visible
  6
ByLayer
284
     0
100
AcDbLine
 10
106.67269339991981
 20
259.40337650581114
 30
0.0
 11
121.67269339991981
 21
259.40337650581114
 31
0.0
 39
0.0
  0
LINE
  5
2BF
330
70
100
AcDbEntity
  8
Visible
  6
ByLayer
284
     0
100
AcDbLine
 10
106.67269339991981
 20
209.40337650581114
 30
0.0
 11
106.67269339991981
 21
259.40337650581114
 31
0.0
 39
0.0
  0
LINE
  5
2C0
330
70
100
AcDbEntity
  8
Visible
  6
ByLayer
284
     0
100
AcDbLine
 10
292.43127564438601
 20
214.75389060616368
 30
28.90465579578678
 11
292.43127564438601
 21
202.49068373352557
 31
20.2667302810071
 39
0.0
210
-0.0
220
0.81754712484254
230
0.57586170098531
  0
LINE
  5
2C1
330
70
100
AcDbEntity
  8
Visible
  6
ByLayer
284
     0
100
AcDbLine
 10
292.43127564438601
 20
202.49068373352557
 30
20.2667302810071
 11
327.78661470370844
 21
222.85046942314526
 31
-8.6379255147833
 39
0.0
210
-0.0
220
0.81754712484254
230
0.57586170098531
  0
LINE
  5
2C2
330
70
100
AcDbEntity
  8
Visible
  6
ByLayer
284
     0
100
AcDbLine
 10
327.78661470370844
 20
235.11367629578336
 30
-0.00000000000363
 11
327.78661470370844
 21
222.85046942314526
 31
-8.6379255147833
 39
0.0
210
-0.0
220
0.81754712484254
230
0.57586170098531
  0
LINE
  5
2C3
330
70
100
AcDbEntity
  8
Visible
  6
ByLayer
284
     0
100
AcDbLine
 10
292.43127564438601
 20
214.75389060616368
 30
28.90465579578678
 11
327.78661470370844
 21
235.11367629578336
 31
-0.00000000000363
 39
0.0
210
-0.0
220
0.81754712484254
230
0.57586170098531
  0
LINE
  5
2C4
330
70
100
AcDbEntity
  8
Visible
  6
ByLayer
284
     0
100
AcDbLine
 10
281.824673926586
 20
220.86182631304774
 30
20.23325905705225
 11
292.43127564438601
 21
214.75389060616368
 31
28.90465579578678
 39
0.0
210
-0.0
220
0.81754712484254
230
0.57586170098531
  0
LINE
  5
2C5
330
70
100
AcDbEntity
  8
Visible
  6
ByLayer
284
     0
100
AcDbLine
 10
317.18001298590843
 20
241.22161200266743
 30
-8.67139673873815
 11
327.78661470370844
 21
235.11367629578336
 31
-0.00000000000363
 39
0.0
210
-0.0
220
0.81754712484254
230
0.57586170098531
  0
LINE
  5
2C6
330
70
100
AcDbEntity
  8
Visible
  6
ByLayer
284
     0
100
AcDbLine
 10
281.824673926586
 20
220.86182631304774
 30
20.23325905705225
 11
317.18001298590843
 21
241.22161200266743
 31
-8.67139673873815
 39
0.0
210
-0.0
220
0.81754712484254
230
0.57586170098531
  0
LINE
  5
2C7
330
70
100
AcDbEntity
  8
Visible
  6
ByLayer
284
     0
100
AcDbLine
 10
281.824673926586
 20
233.12503318568582
 30
28.87118457183193
 11
281.824673926586
 21
220.86182631304774
 31
20.23325905705225
 39
0.0
210
-0.0
220
0.81754712484254
230
0.57586170098531
  0
LINE
  5
2C8
330
70
100
AcDbEntity
  8
Visible
  6
ByLayer
284
     0
100
AcDbLine
 10
317.18001298590843
 20
253.48481887530551
 30
-0.03347122395848
 11
317.18001298590843
 21
241.22161200266743
 31
-8.67139673873815
 39
0.0
210
-0.0
220
0.81754712484254
230
0.57586170098531
  0
LINE
  5
2C9
330
70
100
AcDbEntity
  8
Visible
  6
ByLayer
284
     0
100
AcDbLine
 10
281.824673926586
 20
233.12503318568582
 30
28.87118457183193
 11
317.18001298590843
 21
253.48481887530551
 31
-0.03347122395848
 39
0.0
210
-0.0
220
0.81754712484254
230
0.57586170098531
  0
LINE
  5
2CA
330
70
100
AcDbEntity
  8
Visible
  6
ByLayer
284
     0
100
AcDbLine
 10
267.68253830285266
 20
241.26894746153124
 30
17.30932225351922
 11
281.824673926586
 21
233.12503318568582
 31
28.87118457183193
 39
0.0
210
-0.0
220
0.81754712484254
230
0.57586170098531
  0
LINE
  5
2CB
330
70
100
AcDbEntity
  8
Visible
  6
ByLayer
284
     0
100
AcDbLine
 10
303.0378773621751
 20
261.62873315115093
 30
-11.59533354227118
 11
317.18001298590843
 21
253.48481887530551
 31
-0.03347122395848
 39
0.0
210
-0.0
220
0.81754712484254
230
0.57586170098531
  0
LINE
  5
2CC
330
70
100
AcDbEntity
  8
Visible
  6
ByLayer
284
     0
100
AcDbLine
 10
267.68253830285266
 20
241.26894746153124
 30
17.30932225351922
 11
303.0378773621751
 21
261.62873315115093
 31
-11.59533354227118
 39
0.0
210
-0.0
220
0.81754712484254
230
0.57586170098531
  0
LINE
  5
2CD
330
70
100
AcDbEntity
  8
Visible
  6
ByLayer
284
     0
100
AcDbLine
 10
267.68253830285266
 20
229.00574058889316
 30
8.67139673873955
 11
267.68253830285266
 21
241.26894746153124
 31
17.30932225351922
 39
0.0
210
-0.0
220
0.81754712484254
230
0.57586170098531
  0
LINE
  5
2CE
330
70
100
AcDbEntity
  8
Visible
  6
ByLayer
284
     0
100
AcDbLine
 10
257.07593658505266
 20
235.11367629577745
 30
0.00000000000501
 11
267.68253830285266
 21
229.00574058889316
 31
8.67139673873955
 39
0.0
210
-0.0
220
0.81754712484254
230
0.57586170098531
  0
LINE
  5
2CF
330
70
100
AcDbEntity
  8
Visible
  6
ByLayer
284
     0
100
AcDbLine
 10
257.07593658505266
 20
235.11367629577745
 30
0.00000000000501
 11
267.68253830285266
 21
241.22161200266515
 31
-8.67139673873452
 39
0.0
210
-0.0
220
0.81754712484254
230
0.57586170098531
  0
LINE
  5
2D0
330
70
100
AcDbEntity
  8
Visible
  6
ByLayer
284
     0
100
AcDbLine
 10
257.07593658505266
 20
222.85046942313934
 30
-8.63792551477466
 11
257.07593658505266
 21
235.11367629577745
 31
0.00000000000501
 39
0.0
210
-0.0
220
0.81754712484254
230
0.57586170098531
  0
LINE
  5
2D1
330
70
100
AcDbEntity
  8
Visible
  6
ByLayer
284
     0
100
AcDbLine
 10
292.43127564438601
 20
202.49068373352557
 30
20.2667302810071
 11
257.07593658505266
 21
222.85046942313934
 31
-8.63792551477466
 39
0.0
210
-0.0
220
0.81754712484254
230
0.57586170098531
  0
ENDSEC
  0
EOF
