# Blender v2.83.5 OBJ File: ''
# www.blender.org
mtllib right.mtl
o face3
v -5.079001 -8.466801 8.465101
v 0.000000 8.466801 8.465101
v -5.079001 8.466801 8.465101
v 0.000000 -8.466801 8.465101
v 5.079001 8.466801 8.465101
v -5.079001 -8.466801 -0.000000
v -5.079001 8.466801 0.000000
v 0.000000 8.466801 0.000000
v 0.000000 -8.466801 -0.000000
v 5.079001 8.466801 0.000000
v 5.079001 -8.466801 8.465101
v 5.079001 -8.466801 -0.000000
v 0.000000 8.466801 -8.465101
v -5.079001 -8.466801 -8.465101
v -5.079001 8.466801 -8.465101
v 5.079001 8.466801 -8.465101
v 0.000000 -8.466801 -8.465101
v 5.079001 -8.466801 -8.465101
v -5.079000 -0.000000 8.465101
v -2.539500 -0.000000 8.465101
v -2.539500 8.466801 8.465101
v 0.000000 -0.000000 8.465101
v 2.539500 -0.000000 8.465101
v 2.539500 8.466801 8.465101
v -5.079000 0.000000 -0.000000
v -5.079000 -0.000000 4.232551
v -5.079000 8.466801 4.232551
v -2.539500 8.466801 0.000000
v -2.539500 8.466801 4.232551
v 0.000000 8.466801 4.232551
v -2.539500 -8.466801 -0.000000
v -2.539500 -8.466801 4.232550
v -5.079000 -8.466801 4.232550
v 2.539500 8.466801 0.000000
v 2.539500 8.466801 4.232551
v 5.079000 8.466801 4.232551
v 5.079000 0.000000 -0.000000
v 5.079000 -0.000000 4.232551
v 5.079000 -8.466801 4.232550
v 2.539500 -8.466801 -0.000000
v 2.539500 -8.466801 4.232550
v 0.000000 -8.466801 4.232550
v -2.539500 0.000000 -0.000000
v 0.000000 0.000000 -0.000000
v 2.539500 0.000000 -0.000000
v -2.539500 8.466801 -8.465101
v -2.539500 0.000000 -8.465101
v -5.079000 0.000000 -8.465101
v 2.539500 8.466801 -8.465101
v 2.539500 0.000000 -8.465101
v 0.000000 0.000000 -8.465101
v -5.079000 8.466801 -4.232550
v -5.079000 0.000000 -4.232551
v 0.000000 8.466801 -4.232550
v -2.539500 8.466801 -4.232550
v -5.079000 -8.466801 -4.232551
v -2.539500 -8.466801 -4.232551
v 5.079000 8.466801 -4.232550
v 2.539500 8.466801 -4.232550
v 5.079000 -8.466801 -4.232551
v 5.079000 0.000000 -4.232551
v 0.000000 -8.466801 -4.232551
v 2.539500 -8.466801 -4.232551
v -2.539500 -8.466801 8.465101
v 2.539500 -8.466801 8.465101
v 5.079000 -0.000000 8.465101
v -2.539500 -8.466801 -8.465101
v 5.079000 0.000000 -8.465101
v 2.539500 -8.466801 -8.465101
v -3.386000 2.822266 8.465100
v 1.693000 2.822266 8.465100
v -5.079000 2.822267 2.821700
v -1.693000 8.466801 2.821701
v -3.386000 -8.466801 2.821700
v 3.386000 8.466801 2.821701
v 5.079000 -2.822267 2.821700
v 1.693000 -8.466801 2.821700
v -3.386000 2.822267 0.000000
v 1.693000 2.822267 0.000000
v -3.386000 2.822267 -8.465100
v 1.693000 2.822267 -8.465100
v -5.079000 2.822267 -2.821700
v -1.693000 8.466801 -2.821700
v -3.386000 -8.466801 -2.821701
v 3.386000 8.466801 -2.821700
v 5.079000 -2.822267 -2.821700
v 1.693000 -8.466801 -2.821701
v -1.693000 -2.822267 8.465100
v 3.386000 -2.822267 8.465100
v -5.079000 -2.822267 5.643400
v -3.386000 8.466801 5.643401
v -1.693000 -8.466801 5.643400
v 1.693000 8.466801 5.643401
v 5.079000 2.822267 5.643400
v 3.386000 -8.466801 5.643400
v -1.693000 -2.822267 -0.000000
v 3.386000 -2.822267 -0.000000
v -1.693000 -2.822266 -8.465100
v 3.386000 -2.822266 -8.465100
v -5.079000 -2.822267 -5.643400
v -3.386000 8.466801 -5.643400
v -1.693000 -8.466801 -5.643401
v 1.693000 8.466801 -5.643400
v 5.079000 2.822267 -5.643400
v 3.386000 -8.466801 -5.643401
vt 0.000000 0.000000
vt 0.000000 0.000000
vt 0.000000 0.000000
vt 0.000000 0.000000
vt 0.000000 0.000000
vt 0.000000 0.000000
vt 0.000000 0.000000
vt 0.000000 0.000000
vt 0.000000 0.000000
vt 0.000000 0.000000
vt 0.000000 0.000000
vt 0.000000 0.000000
vt 0.000000 0.000000
vt 0.000000 0.000000
vt 0.000000 0.000000
vt 0.000000 0.000000
vt 0.000000 0.000000
vt 0.000000 0.000000
vt 0.000000 0.000000
vt 0.000000 0.000000
vt 0.000000 0.000000
vt 0.000000 0.000000
vt 0.000000 0.000000
vt 0.000000 0.000000
vt 0.000000 0.000000
vt 0.000000 0.000000
vt 0.000000 0.000000
vt 0.000000 0.000000
vt 0.000000 0.000000
vt 0.000000 0.000000
vt 0.000000 0.000000
vt 0.000000 0.000000
vt 0.000000 0.000000
vt 0.000000 0.000000
vt 0.000000 0.000000
vt 0.000000 0.000000
vt 0.000000 0.000000
vt 0.000000 0.000000
vt 0.000000 0.000000
vt 0.000000 0.000000
vt 0.000000 0.000000
vt 0.000000 0.000000
vt 0.000000 0.000000
vt 0.000000 0.000000
vt 0.000000 0.000000
vt 0.000000 0.000000
vt 0.000000 0.000000
vt 0.000000 0.000000
vt 0.000000 0.000000
vt 0.000000 0.000000
vt 0.000000 0.000000
vt 0.000000 0.000000
vt 0.000000 0.000000
vt 0.000000 0.000000
vt 0.000000 0.000000
vt 0.000000 0.000000
vt 0.000000 0.000000
vt 0.000000 0.000000
vt 0.000000 0.000000
vt 0.000000 0.000000
vt 0.000000 0.000000
vt 0.000000 0.000000
vt 0.000000 0.000000
vt 0.000000 0.000000
vt 0.000000 0.000000
vt 0.000000 0.000000
vt 0.000000 0.000000
vt 0.000000 0.000000
vt 0.000000 0.000000
vt 0.000000 0.000000
vt 0.000000 0.000000
vt 0.000000 0.000000
vt 0.000000 0.000000
vt 0.000000 0.000000
vt 0.000000 0.000000
vt 0.000000 0.000000
vt 0.000000 0.000000
vt 0.000000 0.000000
vt 0.000000 0.000000
vt 0.000000 0.000000
vt 0.000000 0.000000
vt 0.000000 0.000000
vt 0.000000 0.000000
vt 0.000000 0.000000
vt 0.000000 0.000000
vt 0.000000 0.000000
vt 0.000000 0.000000
vt 0.000000 0.000000
vt 0.000000 0.000000
vt 0.000000 0.000000
vt 0.000000 0.000000
vt 0.000000 0.000000
vt 0.000000 0.000000
vt 0.000000 0.000000
vt 0.000000 0.000000
vt 0.000000 0.000000
vt 0.000000 0.000000
vt 0.000000 0.000000
vt 0.000000 0.000000
vt 0.000000 0.000000
vt 0.000000 0.000000
vt 0.000000 0.000000
vt 0.000000 0.000000
vt 0.000000 0.000000
vt 0.000000 0.000000
vn 0.0000 0.0000 1.0000
vn -0.7071 0.0000 0.7071
vn -0.5774 -0.5774 0.5774
vn 0.0000 0.7071 0.7071
vn -0.5774 0.5774 0.5774
vn -0.0000 -0.7071 0.7071
vn 0.5774 0.5774 0.5774
vn -1.0000 -0.0000 0.0000
vn -0.7071 -0.7071 -0.0000
vn -0.7071 0.7071 0.0000
vn 0.0000 1.0000 -0.0000
vn 0.0000 -1.0000 0.0000
vn 0.7071 0.7071 0.0000
vn 1.0000 0.0000 -0.0000
vn 0.5774 -0.5774 0.5774
vn 0.7071 -0.7071 0.0000
vn 0.0000 0.7071 -0.7071
vn -0.0000 0.0000 -1.0000
vn -0.7071 0.0000 -0.7071
vn -0.5774 -0.5774 -0.5774
vn -0.5774 0.5774 -0.5774
vn 0.5774 0.5774 -0.5774
vn 0.0000 -0.7071 -0.7071
vn 0.5774 -0.5774 -0.5774
vn 0.7071 -0.0000 0.7071
vn 0.7071 -0.0000 -0.7071
usemtl None.001
s 1
f 20/1/1 19/2/2 1/3/3
f 2/4/4 70/5/1 20/1/1
f 3/6/5 70/5/1 21/7/4
f 23/8/1 22/9/1 4/10/6
f 5/11/7 71/12/1 23/8/1
f 2/4/4 71/12/1 24/13/4
f 26/14/8 25/15/8 6/16/9
f 3/6/5 72/17/8 26/14/8
f 7/18/10 72/17/8 27/19/10
f 29/20/11 28/21/11 7/18/10
f 30/22/11 29/20/11 2/4/4
f 8/23/11 73/24/11 30/22/11
f 32/25/12 31/26/12 9/27/12
f 33/28/9 32/25/12 1/3/3
f 6/16/9 74/29/12 33/28/9
f 35/30/11 34/31/11 8/23/11
f 36/32/13 35/30/11 5/11/7
f 10/33/13 75/34/11 36/32/13
f 38/35/14 37/36/14 10/33/13
f 11/37/15 76/38/14 38/35/14
f 12/39/16 76/38/14 39/40/16
f 41/41/12 40/42/12 12/39/16
f 42/43/12 41/41/12 4/10/6
f 9/27/12 77/44/12 42/43/12
f 43/45/1 25/15/1 6/16/1
f 8/23/1 78/46/1 43/45/1
f 7/18/1 78/46/1 28/21/1
f 45/47/1 44/48/1 9/27/1
f 10/33/1 79/49/1 45/47/1
f 8/23/1 79/49/1 34/31/1
f 13/50/17 80/51/18 46/52/17
f 48/53/19 47/54/18 14/55/20
f 15/56/21 80/51/18 48/53/19
f 16/57/22 81/58/18 49/59/17
f 51/60/18 50/61/18 17/62/23
f 13/50/17 81/58/18 51/60/18
f 15/56/21 82/63/8 52/64/10
f 25/15/8 53/65/8 6/16/9
f 7/18/10 82/63/8 25/15/8
f 55/66/11 54/67/11 13/50/17
f 28/21/11 55/66/11 7/18/10
f 8/23/11 83/68/11 28/21/11
f 57/69/12 56/70/9 14/55/20
f 31/26/12 57/69/12 9/27/12
f 6/16/9 84/71/12 31/26/12
f 59/72/11 58/73/13 16/57/22
f 34/31/11 59/72/11 8/23/11
f 10/33/13 85/74/11 34/31/11
f 18/75/24 86/76/14 60/77/16
f 37/36/14 61/78/14 10/33/13
f 12/39/16 86/76/14 37/36/14
f 63/79/12 62/80/12 17/62/23
f 40/42/12 63/79/12 12/39/16
f 9/27/12 87/81/12 40/42/12
f 1/3/3 88/82/1 20/1/1
f 4/10/6 88/82/1 64/83/6
f 20/1/1 22/9/1 2/4/4
f 4/10/6 89/84/1 23/8/1
f 11/37/15 89/84/1 65/85/6
f 23/8/1 66/86/25 5/11/7
f 6/16/9 90/87/8 26/14/8
f 1/3/3 90/87/8 33/28/9
f 26/14/8 19/2/2 3/6/5
f 27/19/10 29/20/11 7/18/10
f 3/6/5 91/88/11 27/19/10
f 29/20/11 21/7/4 2/4/4
f 42/43/12 32/25/12 9/27/12
f 4/10/6 92/89/12 42/43/12
f 32/25/12 64/83/6 1/3/3
f 30/22/11 35/30/11 8/23/11
f 2/4/4 93/90/11 30/22/11
f 35/30/11 24/13/4 5/11/7
f 10/33/13 94/91/14 38/35/14
f 5/11/7 94/91/14 36/32/13
f 38/35/14 66/86/25 11/37/15
f 39/40/16 41/41/12 12/39/16
f 11/37/15 95/92/12 39/40/16
f 41/41/12 65/85/6 4/10/6
f 6/16/1 96/93/1 43/45/1
f 9/27/1 96/93/1 31/26/1
f 43/45/1 44/48/1 8/23/1
f 9/27/1 97/94/1 45/47/1
f 12/39/1 97/94/1 40/42/1
f 45/47/1 37/36/1 10/33/1
f 51/60/18 47/54/18 13/50/17
f 17/62/23 98/95/18 51/60/18
f 14/55/20 98/95/18 67/96/23
f 68/97/26 50/61/18 16/57/22
f 18/75/24 99/98/18 68/97/26
f 17/62/23 99/98/18 69/99/23
f 48/53/19 53/65/8 15/56/21
f 14/55/20 100/100/8 48/53/19
f 6/16/9 100/100/8 56/70/9
f 46/52/17 55/66/11 13/50/17
f 15/56/21 101/101/11 46/52/17
f 55/66/11 52/64/10 7/18/10
f 67/96/23 57/69/12 14/55/20
f 17/62/23 102/102/12 67/96/23
f 57/69/12 62/80/12 9/27/12
f 49/59/17 59/72/11 16/57/22
f 13/50/17 103/103/11 49/59/17
f 59/72/11 54/67/11 8/23/11
f 68/97/26 61/78/14 18/75/24
f 16/57/22 104/104/14 68/97/26
f 10/33/13 104/104/14 58/73/13
f 69/99/23 63/79/12 17/62/23
f 18/75/24 105/105/12 69/99/23
f 63/79/12 60/77/16 12/39/16
f 20/1/1 70/5/1 19/2/2
f 2/4/4 21/7/4 70/5/1
f 3/6/5 19/2/2 70/5/1
f 23/8/1 71/12/1 22/9/1
f 5/11/7 24/13/4 71/12/1
f 2/4/4 22/9/1 71/12/1
f 26/14/8 72/17/8 25/15/8
f 3/6/5 27/19/10 72/17/8
f 7/18/10 25/15/8 72/17/8
f 29/20/11 73/24/11 28/21/11
f 30/22/11 73/24/11 29/20/11
f 8/23/11 28/21/11 73/24/11
f 32/25/12 74/29/12 31/26/12
f 33/28/9 74/29/12 32/25/12
f 6/16/9 31/26/12 74/29/12
f 35/30/11 75/34/11 34/31/11
f 36/32/13 75/34/11 35/30/11
f 10/33/13 34/31/11 75/34/11
f 38/35/14 76/38/14 37/36/14
f 11/37/15 39/40/16 76/38/14
f 12/39/16 37/36/14 76/38/14
f 41/41/12 77/44/12 40/42/12
f 42/43/12 77/44/12 41/41/12
f 9/27/12 40/42/12 77/44/12
f 43/45/1 78/46/1 25/15/1
f 8/23/1 28/21/1 78/46/1
f 7/18/1 25/15/1 78/46/1
f 45/47/1 79/49/1 44/48/1
f 10/33/1 34/31/1 79/49/1
f 8/23/1 44/48/1 79/49/1
f 13/50/17 47/54/18 80/51/18
f 48/53/19 80/51/18 47/54/18
f 15/56/21 46/52/17 80/51/18
f 16/57/22 50/61/18 81/58/18
f 51/60/18 81/58/18 50/61/18
f 13/50/17 49/59/17 81/58/18
f 15/56/21 53/65/8 82/63/8
f 25/15/8 82/63/8 53/65/8
f 7/18/10 52/64/10 82/63/8
f 55/66/11 83/68/11 54/67/11
f 28/21/11 83/68/11 55/66/11
f 8/23/11 54/67/11 83/68/11
f 57/69/12 84/71/12 56/70/9
f 31/26/12 84/71/12 57/69/12
f 6/16/9 56/70/9 84/71/12
f 59/72/11 85/74/11 58/73/13
f 34/31/11 85/74/11 59/72/11
f 10/33/13 58/73/13 85/74/11
f 18/75/24 61/78/14 86/76/14
f 37/36/14 86/76/14 61/78/14
f 12/39/16 60/77/16 86/76/14
f 63/79/12 87/81/12 62/80/12
f 40/42/12 87/81/12 63/79/12
f 9/27/12 62/80/12 87/81/12
f 1/3/3 64/83/6 88/82/1
f 4/10/6 22/9/1 88/82/1
f 20/1/1 88/82/1 22/9/1
f 4/10/6 65/85/6 89/84/1
f 11/37/15 66/86/25 89/84/1
f 23/8/1 89/84/1 66/86/25
f 6/16/9 33/28/9 90/87/8
f 1/3/3 19/2/2 90/87/8
f 26/14/8 90/87/8 19/2/2
f 27/19/10 91/88/11 29/20/11
f 3/6/5 21/7/4 91/88/11
f 29/20/11 91/88/11 21/7/4
f 42/43/12 92/89/12 32/25/12
f 4/10/6 64/83/6 92/89/12
f 32/25/12 92/89/12 64/83/6
f 30/22/11 93/90/11 35/30/11
f 2/4/4 24/13/4 93/90/11
f 35/30/11 93/90/11 24/13/4
f 10/33/13 36/32/13 94/91/14
f 5/11/7 66/86/25 94/91/14
f 38/35/14 94/91/14 66/86/25
f 39/40/16 95/92/12 41/41/12
f 11/37/15 65/85/6 95/92/12
f 41/41/12 95/92/12 65/85/6
f 6/16/1 31/26/1 96/93/1
f 9/27/1 44/48/1 96/93/1
f 43/45/1 96/93/1 44/48/1
f 9/27/1 40/42/1 97/94/1
f 12/39/1 37/36/1 97/94/1
f 45/47/1 97/94/1 37/36/1
f 51/60/18 98/95/18 47/54/18
f 17/62/23 67/96/23 98/95/18
f 14/55/20 47/54/18 98/95/18
f 68/97/26 99/98/18 50/61/18
f 18/75/24 69/99/23 99/98/18
f 17/62/23 50/61/18 99/98/18
f 48/53/19 100/100/8 53/65/8
f 14/55/20 56/70/9 100/100/8
f 6/16/9 53/65/8 100/100/8
f 46/52/17 101/101/11 55/66/11
f 15/56/21 52/64/10 101/101/11
f 55/66/11 101/101/11 52/64/10
f 67/96/23 102/102/12 57/69/12
f 17/62/23 62/80/12 102/102/12
f 57/69/12 102/102/12 62/80/12
f 49/59/17 103/103/11 59/72/11
f 13/50/17 54/67/11 103/103/11
f 59/72/11 103/103/11 54/67/11
f 68/97/26 104/104/14 61/78/14
f 16/57/22 58/73/13 104/104/14
f 10/33/13 61/78/14 104/104/14
f 69/99/23 105/105/12 63/79/12
f 18/75/24 60/77/16 105/105/12
f 63/79/12 105/105/12 60/77/16
