# Blender v2.83.5 OBJ File: ''
# www.blender.org
mtllib top.mtl
o face0
v -3.386701 8.466802 8.465101
v -8.466801 8.466802 -8.465101
v -8.466801 8.466802 8.465101
v 3.386701 8.466802 8.465101
v -3.386701 8.466802 -8.465101
v 8.466801 8.466802 8.465101
v 3.386701 8.466802 -8.465101
v -3.386701 0.000000 8.465101
v -8.466801 0.000000 8.465101
v -8.466801 0.000001 -8.465101
v -3.386701 0.000001 -8.465101
v 3.386701 0.000000 8.465101
v 3.386701 0.000001 -8.465101
v 8.466801 0.000000 8.465101
v 8.466801 8.466802 -8.465101
v 8.466801 0.000001 -8.465101
v -8.466801 -8.466801 -8.465101
v -3.386701 -8.466801 8.465101
v -8.466801 -8.466801 8.465101
v -3.386701 -8.466801 -8.465101
v 3.386701 -8.466801 8.465101
v 3.386701 -8.466801 -8.465101
v 8.466801 -8.466801 8.465101
v 8.466801 -8.466801 -8.465101
v -5.926751 8.466802 8.465101
v -5.926751 8.466802 0.000000
v -8.466801 8.466802 0.000000
v -0.000000 8.466802 8.465101
v -0.000000 8.466802 0.000000
v -3.386701 8.466802 0.000000
v 5.926751 8.466802 8.465101
v 5.926751 8.466802 0.000000
v 3.386701 8.466802 0.000000
v -5.926751 0.000000 8.465101
v -5.926751 4.233400 8.465101
v -8.466801 4.233400 8.465101
v -8.466801 0.000000 0.000000
v -8.466801 4.233401 0.000000
v -8.466801 4.233401 -8.465101
v -5.926751 0.000001 -8.465101
v -5.926751 4.233401 -8.465101
v -3.386701 4.233401 -8.465101
v -0.000000 0.000000 8.465101
v -0.000000 4.233400 8.465101
v -3.386701 4.233400 8.465101
v -0.000000 0.000001 -8.465101
v -0.000000 4.233401 -8.465101
v 3.386701 4.233401 -8.465101
v 5.926751 0.000000 8.465101
v 5.926751 4.233400 8.465101
v 3.386701 4.233400 8.465101
v 5.926751 0.000001 -8.465101
v 5.926751 4.233401 -8.465101
v 8.466801 4.233401 -8.465101
v 8.466801 0.000000 0.000000
v 8.466801 4.233401 0.000000
v 8.466801 4.233400 8.465101
v -5.926751 0.000000 0.000000
v -0.000000 0.000000 0.000000
v -3.386701 0.000000 0.000000
v 5.926751 0.000000 0.000000
v 3.386701 0.000000 0.000000
v -8.466801 -8.466801 -0.000000
v -5.926751 -8.466801 -0.000000
v -5.926751 -8.466801 8.465101
v -3.386701 -8.466801 -0.000000
v -0.000000 -8.466801 -0.000000
v -0.000000 -8.466801 8.465101
v 3.386701 -8.466801 -0.000000
v 5.926751 -8.466801 -0.000000
v 5.926751 -8.466801 8.465101
v -8.466801 -4.233401 8.465101
v -5.926751 -4.233401 8.465101
v -8.466801 -4.233400 -8.465101
v -8.466801 -4.233400 -0.000000
v -3.386701 -4.233400 -8.465101
v -5.926751 -4.233400 -8.465101
v -3.386701 -4.233401 8.465101
v -0.000000 -4.233401 8.465101
v 3.386701 -4.233400 -8.465101
v -0.000000 -4.233400 -8.465101
v 3.386701 -4.233401 8.465101
v 5.926751 -4.233401 8.465101
v 8.466801 -4.233400 -8.465101
v 5.926751 -4.233400 -8.465101
v 8.466801 -4.233401 8.465101
v 8.466801 -4.233400 -0.000000
v -5.926751 8.466802 -8.465101
v -0.000000 8.466802 -8.465101
v 8.466801 8.466802 0.000000
v 5.926751 8.466802 -8.465101
v -5.926751 -8.466801 -8.465101
v -0.000000 -8.466801 -8.465101
v 5.926751 -8.466801 -8.465101
v 8.466801 -8.466801 -0.000000
v -6.773434 8.466802 2.821701
v -1.128900 8.466802 2.821701
v 5.080067 8.466802 2.821701
v -6.773434 2.822267 8.465100
v -8.466801 2.822268 -2.821700
v -5.080067 2.822268 -8.465100
v -1.128900 2.822267 8.465100
v 1.128900 2.822268 -8.465100
v 5.080067 2.822267 8.465100
v 6.773434 2.822268 -8.465100
v 8.466801 2.822267 2.821700
v -6.773434 0.000000 2.821700
v -1.128900 0.000000 2.821700
v 5.080067 0.000000 2.821700
v -6.773434 -8.466801 2.821700
v -1.128900 -8.466801 2.821700
v 5.080067 -8.466801 2.821700
v -6.773434 -2.822267 8.465100
v -8.466801 -2.822266 -2.821700
v -5.080067 -2.822266 -8.465100
v -1.128900 -2.822267 8.465100
v 1.128900 -2.822266 -8.465100
v 5.080067 -2.822267 8.465100
v 6.773434 -2.822266 -8.465100
v 8.466801 -2.822267 2.821700
v -5.080067 8.466802 -2.821700
v 1.128900 8.466802 -2.821700
v 6.773434 8.466802 -2.821700
v -5.080067 5.644534 8.465100
v -8.466801 5.644534 2.821700
v -6.773434 5.644535 -8.465100
v 1.128900 5.644534 8.465100
v -1.128900 5.644535 -8.465100
v 6.773434 5.644534 8.465100
v 5.080067 5.644535 -8.465100
v 8.466801 5.644534 -2.821700
v -5.080067 0.000001 -2.821700
v 1.128900 0.000001 -2.821700
v 6.773434 0.000001 -2.821700
v -5.080067 -8.466801 -2.821701
v 1.128900 -8.466801 -2.821701
v 6.773434 -8.466801 -2.821701
v -5.080067 -5.644534 8.465100
v -8.466801 -5.644534 2.821700
v -6.773434 -5.644533 -8.465100
v 1.128900 -5.644534 8.465100
v -1.128900 -5.644533 -8.465100
v 6.773434 -5.644534 8.465100
v 5.080067 -5.644533 -8.465100
v 8.466801 -5.644534 -2.821700
vt 0.000000 0.000000
vt 0.000000 0.000000
vt 0.000000 0.000000
vt 0.000000 0.000000
vt 0.000000 0.000000
vt 0.000000 0.000000
vt 0.000000 0.000000
vt 0.000000 0.000000
vt 0.000000 0.000000
vt 0.000000 0.000000
vt 0.000000 0.000000
vt 0.000000 0.000000
vt 0.000000 0.000000
vt 0.000000 0.000000
vt 0.000000 0.000000
vt 0.000000 0.000000
vt 0.000000 0.000000
vt 0.000000 0.000000
vt 0.000000 0.000000
vt 0.000000 0.000000
vt 0.000000 0.000000
vt 0.000000 0.000000
vt 0.000000 0.000000
vt 0.000000 0.000000
vt 0.000000 0.000000
vt 0.000000 0.000000
vt 0.000000 0.000000
vt 0.000000 0.000000
vt 0.000000 0.000000
vt 0.000000 0.000000
vt 0.000000 0.000000
vt 0.000000 0.000000
vt 0.000000 0.000000
vt 0.000000 0.000000
vt 0.000000 0.000000
vt 0.000000 0.000000
vt 0.000000 0.000000
vt 0.000000 0.000000
vt 0.000000 0.000000
vt 0.000000 0.000000
vt 0.000000 0.000000
vt 0.000000 0.000000
vt 0.000000 0.000000
vt 0.000000 0.000000
vt 0.000000 0.000000
vt 0.000000 0.000000
vt 0.000000 0.000000
vt 0.000000 0.000000
vt 0.000000 0.000000
vt 0.000000 0.000000
vt 0.000000 0.000000
vt 0.000000 0.000000
vt 0.000000 0.000000
vt 0.000000 0.000000
vt 0.000000 0.000000
vt 0.000000 0.000000
vt 0.000000 0.000000
vt 0.000000 0.000000
vt 0.000000 0.000000
vt 0.000000 0.000000
vt 0.000000 0.000000
vt 0.000000 0.000000
vt 0.000000 0.000000
vt 0.000000 0.000000
vt 0.000000 0.000000
vt 0.000000 0.000000
vt 0.000000 0.000000
vt 0.000000 0.000000
vt 0.000000 0.000000
vt 0.000000 0.000000
vt 0.000000 0.000000
vt 0.000000 0.000000
vt 0.000000 0.000000
vt 0.000000 0.000000
vt 0.000000 0.000000
vt 0.000000 0.000000
vt 0.000000 0.000000
vt 0.000000 0.000000
vt 0.000000 0.000000
vt 0.000000 0.000000
vt 0.000000 0.000000
vt 0.000000 0.000000
vt 0.000000 0.000000
vt 0.000000 0.000000
vt 0.000000 0.000000
vt 0.000000 0.000000
vt 0.000000 0.000000
vt 0.000000 0.000000
vt 0.000000 0.000000
vt 0.000000 0.000000
vt 0.000000 0.000000
vt 0.000000 0.000000
vt 0.000000 0.000000
vt 0.000000 0.000000
vt 0.000000 0.000000
vt 0.000000 0.000000
vt 0.000000 0.000000
vt 0.000000 0.000000
vt 0.000000 0.000000
vt 0.000000 0.000000
vt 0.000000 0.000000
vt 0.000000 0.000000
vt 0.000000 0.000000
vt 0.000000 0.000000
vt 0.000000 0.000000
vt 0.000000 0.000000
vt 0.000000 0.000000
vt 0.000000 0.000000
vt 0.000000 0.000000
vt 0.000000 0.000000
vt 0.000000 0.000000
vt 0.000000 0.000000
vt 0.000000 0.000000
vt 0.000000 0.000000
vt 0.000000 0.000000
vt 0.000000 0.000000
vt 0.000000 0.000000
vt 0.000000 0.000000
vt 0.000000 0.000000
vt 0.000000 0.000000
vt 0.000000 0.000000
vt 0.000000 0.000000
vt 0.000000 0.000000
vt 0.000000 0.000000
vt 0.000000 0.000000
vt 0.000000 0.000000
vt 0.000000 0.000000
vt 0.000000 0.000000
vt 0.000000 0.000000
vt 0.000000 0.000000
vt 0.000000 0.000000
vt 0.000000 0.000000
vt 0.000000 0.000000
vt 0.000000 0.000000
vt 0.000000 0.000000
vt 0.000000 0.000000
vt 0.000000 0.000000
vt 0.000000 0.000000
vt 0.000000 0.000000
vt 0.000000 0.000000
vt 0.000000 0.000000
vt 0.000000 0.000000
vt 0.000000 0.000000
vt 0.000000 0.000000
vt 0.000000 0.000000
vn 0.0000 0.7071 0.7071
vn 0.0000 1.0000 -0.0000
vn -0.7071 0.7071 0.0000
vn -0.5774 0.5774 -0.5774
vn -0.5774 0.5774 0.5774
vn 0.0000 0.7071 -0.7071
vn 0.5774 0.5774 0.5774
vn 0.0000 0.0000 1.0000
vn -0.7071 -0.0000 0.7071
vn -1.0000 0.0000 0.0000
vn -0.7071 0.0000 -0.7071
vn -0.0000 0.0000 -1.0000
vn 0.7071 0.0000 0.7071
vn 0.7071 -0.0000 -0.7071
vn 0.5774 0.5774 -0.5774
vn 1.0000 -0.0000 0.0000
vn 0.0000 -1.0000 -0.0000
vn -0.7071 -0.7071 0.0000
vn -0.5774 -0.5774 -0.5774
vn -0.0000 -0.7071 0.7071
vn -0.5774 -0.5774 0.5774
vn 0.0000 -0.7071 -0.7071
vn 0.5774 -0.5774 0.5774
vn 0.5774 -0.5774 -0.5774
vn 0.7071 0.7071 -0.0000
vn 0.7071 -0.7071 0.0000
usemtl None
s 1
f 1/1/1 96/2/2 25/3/1
f 27/4/3 26/5/2 2/6/4
f 3/7/5 96/2/2 27/4/3
f 4/8/1 97/9/2 28/10/1
f 30/11/2 29/12/2 5/13/6
f 1/1/1 97/9/2 30/11/2
f 6/14/7 98/15/2 31/16/1
f 33/17/2 32/18/2 7/19/6
f 4/8/1 98/15/2 33/17/2
f 35/20/8 34/21/8 8/22/8
f 36/23/9 35/20/8 3/7/5
f 9/24/9 99/25/8 36/23/9
f 38/26/10 37/27/10 9/24/9
f 2/6/4 100/28/10 38/26/10
f 10/29/11 100/28/10 39/30/11
f 41/31/12 40/32/12 10/29/11
f 42/33/12 41/31/12 5/13/6
f 11/34/12 101/35/12 42/33/12
f 44/36/8 43/37/8 12/38/8
f 45/39/8 44/36/8 1/1/1
f 8/22/8 102/40/8 45/39/8
f 47/41/12 46/42/12 11/34/12
f 48/43/12 47/41/12 7/19/6
f 13/44/12 103/45/12 48/43/12
f 50/46/8 49/47/8 14/48/13
f 51/49/8 50/46/8 4/8/1
f 12/38/8 104/50/8 51/49/8
f 53/51/12 52/52/12 13/44/12
f 54/53/14 53/51/12 15/54/15
f 16/55/14 105/56/12 54/53/14
f 56/57/16 55/58/16 16/55/14
f 6/14/7 106/59/16 56/57/16
f 14/48/13 106/59/16 57/60/13
f 8/22/2 107/61/2 34/21/2
f 37/27/2 58/62/2 10/29/2
f 9/24/2 107/61/2 37/27/2
f 12/38/2 108/63/2 43/37/2
f 60/64/2 59/65/2 11/34/2
f 8/22/2 108/63/2 60/64/2
f 14/48/2 109/66/2 49/47/2
f 62/67/2 61/68/2 13/44/2
f 12/38/2 109/66/2 62/67/2
f 64/69/17 63/70/18 17/71/19
f 18/72/20 110/73/17 64/69/17
f 19/74/21 110/73/17 65/75/20
f 67/76/17 66/77/17 20/78/22
f 21/79/20 111/80/17 67/76/17
f 18/72/20 111/80/17 68/81/20
f 70/82/17 69/83/17 22/84/22
f 23/85/23 112/86/17 70/82/17
f 21/79/20 112/86/17 71/87/20
f 73/88/8 72/89/9 19/74/21
f 34/21/8 73/88/8 8/22/8
f 9/24/9 113/90/8 34/21/8
f 17/71/19 114/91/10 74/92/11
f 37/27/10 75/93/10 9/24/9
f 10/29/11 114/91/10 37/27/10
f 77/94/12 76/95/12 20/78/22
f 40/32/12 77/94/12 10/29/11
f 11/34/12 115/96/12 40/32/12
f 79/97/8 78/98/8 18/72/20
f 43/37/8 79/97/8 12/38/8
f 8/22/8 116/99/8 43/37/8
f 81/100/12 80/101/12 22/84/22
f 46/42/12 81/100/12 11/34/12
f 13/44/12 117/102/12 46/42/12
f 83/103/8 82/104/8 21/79/20
f 49/47/8 83/103/8 14/48/13
f 12/38/8 118/105/8 49/47/8
f 85/106/12 84/107/14 24/108/24
f 52/52/12 85/106/12 13/44/12
f 16/55/14 119/109/12 52/52/12
f 23/85/23 120/110/16 86/111/13
f 55/58/16 87/112/16 16/55/14
f 14/48/13 120/110/16 55/58/16
f 30/11/2 26/5/2 1/1/1
f 5/13/6 121/113/2 30/11/2
f 2/6/4 121/113/2 88/114/6
f 33/17/2 29/12/2 4/8/1
f 7/19/6 122/115/2 33/17/2
f 5/13/6 122/115/2 89/116/6
f 90/117/25 32/18/2 6/14/7
f 15/54/15 123/118/2 90/117/25
f 7/19/6 123/118/2 91/119/6
f 45/39/8 35/20/8 8/22/8
f 1/1/1 124/120/8 45/39/8
f 35/20/8 25/3/1 3/7/5
f 9/24/9 125/121/10 38/26/10
f 3/7/5 125/121/10 36/23/9
f 38/26/10 27/4/3 2/6/4
f 39/30/11 41/31/12 10/29/11
f 2/6/4 126/122/12 39/30/11
f 41/31/12 88/114/6 5/13/6
f 51/49/8 44/36/8 12/38/8
f 4/8/1 127/123/8 51/49/8
f 44/36/8 28/10/1 1/1/1
f 42/33/12 47/41/12 11/34/12
f 5/13/6 128/124/12 42/33/12
f 47/41/12 89/116/6 7/19/6
f 57/60/13 50/46/8 14/48/13
f 6/14/7 129/125/8 57/60/13
f 50/46/8 31/16/1 4/8/1
f 48/43/12 53/51/12 13/44/12
f 7/19/6 130/126/12 48/43/12
f 53/51/12 91/119/6 15/54/15
f 16/55/14 131/127/16 56/57/16
f 15/54/15 131/127/16 54/53/14
f 56/57/16 90/117/25 6/14/7
f 60/64/2 58/62/2 8/22/2
f 11/34/2 132/128/2 60/64/2
f 10/29/2 132/128/2 40/32/2
f 62/67/2 59/65/2 12/38/2
f 13/44/2 133/129/2 62/67/2
f 11/34/2 133/129/2 46/42/2
f 55/58/2 61/68/2 14/48/2
f 16/55/2 134/130/2 55/58/2
f 13/44/2 134/130/2 52/52/2
f 17/71/19 135/131/17 64/69/17
f 20/78/22 135/131/17 92/132/22
f 64/69/17 66/77/17 18/72/20
f 20/78/22 136/133/17 67/76/17
f 22/84/22 136/133/17 93/134/22
f 67/76/17 69/83/17 21/79/20
f 22/84/22 137/135/17 70/82/17
f 24/108/24 137/135/17 94/136/22
f 70/82/17 95/137/26 23/85/23
f 65/75/20 73/88/8 19/74/21
f 18/72/20 138/138/8 65/75/20
f 73/88/8 78/98/8 8/22/8
f 63/70/18 75/93/10 17/71/19
f 19/74/21 139/139/10 63/70/18
f 9/24/9 139/139/10 72/89/9
f 92/132/22 77/94/12 20/78/22
f 17/71/19 140/140/12 92/132/22
f 77/94/12 74/92/11 10/29/11
f 68/81/20 79/97/8 18/72/20
f 21/79/20 141/141/8 68/81/20
f 79/97/8 82/104/8 12/38/8
f 93/134/22 81/100/12 22/84/22
f 20/78/22 142/142/12 93/134/22
f 81/100/12 76/95/12 11/34/12
f 71/87/20 83/103/8 21/79/20
f 23/85/23 143/143/8 71/87/20
f 83/103/8 86/111/13 14/48/13
f 94/136/22 85/106/12 24/108/24
f 22/84/22 144/144/12 94/136/22
f 85/106/12 80/101/12 13/44/12
f 95/137/26 87/112/16 23/85/23
f 24/108/24 145/145/16 95/137/26
f 16/55/14 145/145/16 84/107/14
f 1/1/1 26/5/2 96/2/2
f 27/4/3 96/2/2 26/5/2
f 3/7/5 25/3/1 96/2/2
f 4/8/1 29/12/2 97/9/2
f 30/11/2 97/9/2 29/12/2
f 1/1/1 28/10/1 97/9/2
f 6/14/7 32/18/2 98/15/2
f 33/17/2 98/15/2 32/18/2
f 4/8/1 31/16/1 98/15/2
f 35/20/8 99/25/8 34/21/8
f 36/23/9 99/25/8 35/20/8
f 9/24/9 34/21/8 99/25/8
f 38/26/10 100/28/10 37/27/10
f 2/6/4 39/30/11 100/28/10
f 10/29/11 37/27/10 100/28/10
f 41/31/12 101/35/12 40/32/12
f 42/33/12 101/35/12 41/31/12
f 11/34/12 40/32/12 101/35/12
f 44/36/8 102/40/8 43/37/8
f 45/39/8 102/40/8 44/36/8
f 8/22/8 43/37/8 102/40/8
f 47/41/12 103/45/12 46/42/12
f 48/43/12 103/45/12 47/41/12
f 13/44/12 46/42/12 103/45/12
f 50/46/8 104/50/8 49/47/8
f 51/49/8 104/50/8 50/46/8
f 12/38/8 49/47/8 104/50/8
f 53/51/12 105/56/12 52/52/12
f 54/53/14 105/56/12 53/51/12
f 16/55/14 52/52/12 105/56/12
f 56/57/16 106/59/16 55/58/16
f 6/14/7 57/60/13 106/59/16
f 14/48/13 55/58/16 106/59/16
f 8/22/2 58/62/2 107/61/2
f 37/27/2 107/61/2 58/62/2
f 9/24/2 34/21/2 107/61/2
f 12/38/2 59/65/2 108/63/2
f 60/64/2 108/63/2 59/65/2
f 8/22/2 43/37/2 108/63/2
f 14/48/2 61/68/2 109/66/2
f 62/67/2 109/66/2 61/68/2
f 12/38/2 49/47/2 109/66/2
f 64/69/17 110/73/17 63/70/18
f 18/72/20 65/75/20 110/73/17
f 19/74/21 63/70/18 110/73/17
f 67/76/17 111/80/17 66/77/17
f 21/79/20 68/81/20 111/80/17
f 18/72/20 66/77/17 111/80/17
f 70/82/17 112/86/17 69/83/17
f 23/85/23 71/87/20 112/86/17
f 21/79/20 69/83/17 112/86/17
f 73/88/8 113/90/8 72/89/9
f 34/21/8 113/90/8 73/88/8
f 9/24/9 72/89/9 113/90/8
f 17/71/19 75/93/10 114/91/10
f 37/27/10 114/91/10 75/93/10
f 10/29/11 74/92/11 114/91/10
f 77/94/12 115/96/12 76/95/12
f 40/32/12 115/96/12 77/94/12
f 11/34/12 76/95/12 115/96/12
f 79/97/8 116/99/8 78/98/8
f 43/37/8 116/99/8 79/97/8
f 8/22/8 78/98/8 116/99/8
f 81/100/12 117/102/12 80/101/12
f 46/42/12 117/102/12 81/100/12
f 13/44/12 80/101/12 117/102/12
f 83/103/8 118/105/8 82/104/8
f 49/47/8 118/105/8 83/103/8
f 12/38/8 82/104/8 118/105/8
f 85/106/12 119/109/12 84/107/14
f 52/52/12 119/109/12 85/106/12
f 16/55/14 84/107/14 119/109/12
f 23/85/23 87/112/16 120/110/16
f 55/58/16 120/110/16 87/112/16
f 14/48/13 86/111/13 120/110/16
f 30/11/2 121/113/2 26/5/2
f 5/13/6 88/114/6 121/113/2
f 2/6/4 26/5/2 121/113/2
f 33/17/2 122/115/2 29/12/2
f 7/19/6 89/116/6 122/115/2
f 5/13/6 29/12/2 122/115/2
f 90/117/25 123/118/2 32/18/2
f 15/54/15 91/119/6 123/118/2
f 7/19/6 32/18/2 123/118/2
f 45/39/8 124/120/8 35/20/8
f 1/1/1 25/3/1 124/120/8
f 35/20/8 124/120/8 25/3/1
f 9/24/9 36/23/9 125/121/10
f 3/7/5 27/4/3 125/121/10
f 38/26/10 125/121/10 27/4/3
f 39/30/11 126/122/12 41/31/12
f 2/6/4 88/114/6 126/122/12
f 41/31/12 126/122/12 88/114/6
f 51/49/8 127/123/8 44/36/8
f 4/8/1 28/10/1 127/123/8
f 44/36/8 127/123/8 28/10/1
f 42/33/12 128/124/12 47/41/12
f 5/13/6 89/116/6 128/124/12
f 47/41/12 128/124/12 89/116/6
f 57/60/13 129/125/8 50/46/8
f 6/14/7 31/16/1 129/125/8
f 50/46/8 129/125/8 31/16/1
f 48/43/12 130/126/12 53/51/12
f 7/19/6 91/119/6 130/126/12
f 53/51/12 130/126/12 91/119/6
f 16/55/14 54/53/14 131/127/16
f 15/54/15 90/117/25 131/127/16
f 56/57/16 131/127/16 90/117/25
f 60/64/2 132/128/2 58/62/2
f 11/34/2 40/32/2 132/128/2
f 10/29/2 58/62/2 132/128/2
f 62/67/2 133/129/2 59/65/2
f 13/44/2 46/42/2 133/129/2
f 11/34/2 59/65/2 133/129/2
f 55/58/2 134/130/2 61/68/2
f 16/55/2 52/52/2 134/130/2
f 13/44/2 61/68/2 134/130/2
f 17/71/19 92/132/22 135/131/17
f 20/78/22 66/77/17 135/131/17
f 64/69/17 135/131/17 66/77/17
f 20/78/22 93/134/22 136/133/17
f 22/84/22 69/83/17 136/133/17
f 67/76/17 136/133/17 69/83/17
f 22/84/22 94/136/22 137/135/17
f 24/108/24 95/137/26 137/135/17
f 70/82/17 137/135/17 95/137/26
f 65/75/20 138/138/8 73/88/8
f 18/72/20 78/98/8 138/138/8
f 73/88/8 138/138/8 78/98/8
f 63/70/18 139/139/10 75/93/10
f 19/74/21 72/89/9 139/139/10
f 9/24/9 75/93/10 139/139/10
f 92/132/22 140/140/12 77/94/12
f 17/71/19 74/92/11 140/140/12
f 77/94/12 140/140/12 74/92/11
f 68/81/20 141/141/8 79/97/8
f 21/79/20 82/104/8 141/141/8
f 79/97/8 141/141/8 82/104/8
f 93/134/22 142/142/12 81/100/12
f 20/78/22 76/95/12 142/142/12
f 81/100/12 142/142/12 76/95/12
f 71/87/20 143/143/8 83/103/8
f 23/85/23 86/111/13 143/143/8
f 83/103/8 143/143/8 86/111/13
f 94/136/22 144/144/12 85/106/12
f 22/84/22 80/101/12 144/144/12
f 85/106/12 144/144/12 80/101/12
f 95/137/26 145/145/16 87/112/16
f 24/108/24 84/107/14 145/145/16
f 16/55/14 87/112/16 145/145/16
