999
LibreDWG UNKNOWN
  0
SECTION
  2
HEADER
  9
$ACADVER
  1
AC1027
  9
$HANDSEED
  5
1EF
  0
ENDSEC
  0
SECTION
  2
ENTITIES
  0
INSERT
  5
CC
330
70
100
AcDbEntity
  8
Border
  6
ByLayer
284
     0
100
AcDbBlockReference
  2
ISO_A3_SHEET
 10
0.0
 20
0.0
 30
0.0
 50
0.0
210
0.0
220
0.0
230
1.0
  0
INSERT
  5
112
330
70
100
AcDbEntity
  8
TitleBlock
  6
ByLayer
284
     0
100
AcDbBlockReference
  2
ISO_TITLEBLOCK
 66
     1
 10
410.0
 20
10.0
 30
0.0
 50
0.0
210
0.0
220
0.0
230
1.0
  0
ATTRIB
  5
13F
330
112
100
AcDbEntity
  8
TitleBlock
  6
ByLayer
284
     0
  7
FusionTitle
100
AcDbText
 10
360.0
 20
11.5
 39
0.0
 40
3.5
  1

100
AcDbAttribute
  2
DATE_OF_ISSUE
 73
     0
 70
     0
  0
ATTRIB
  5
140
330
112
100
AcDbEntity
  8
TitleBlock
  6
ByLayer
284
     0
  7
FusionTitle
100
AcDbText
 10
354.0
 20
13.1
 11
10.0
 21
20.0
 39
0.0
 40
3.5
  1

 72
     4
100
AcDbAttribute
  2
REV
 73
     0
 70
     0
  0
ATTRIB
  5
141
330
112
100
AcDbEntity
  8
TitleBlock
  6
ByLayer
284
     0
  7
FusionTitle
100
AcDbText
 10
289.0
 20
11.5
 39
0.0
 40
5.0
  1

100
AcDbAttribute
  2
TITLE_3
 73
     0
 70
     0
  0
ATTRIB
  5
142
330
112
100
AcDbEntity
  8
TitleBlock
  6
ByLayer
284
     0
  7
FusionTitle
100
AcDbText
 10
350.0
 20
38.5
 39
0.0
 40
3.5
  1

100
AcDbAttribute
  2
DOCUMENT_STATUS
 73
     0
 70
     0
  0
ATTRIB
  5
143
330
112
100
AcDbEntity
  8
TitleBlock
  6
ByLayer
284
     0
  7
FusionTitle
100
AcDbText
 10
289.0
 20
38.5
 39
0.0
 40
3.5
  1

100
AcDbAttribute
  2
DOCUMENT_TYPE
 73
     0
 70
     0
  0
ATTRIB
  5
144
330
112
100
AcDbEntity
  8
TitleBlock
  6
ByLayer
284
     0
  7
FusionTitle
100
AcDbText
 10
409.0
 20
48.5
 11
10.0
 21
20.0
 39
0.0
 40
3.5
  1

 72
     2
100
AcDbAttribute
  2
APPROVED_DATE
 73
     0
 70
     0
  0
ATTRIB
  5
145
330
112
100
AcDbEntity
  8
TitleBlock
  6
ByLayer
284
     0
  7
FusionTitle
100
AcDbText
 10
323.52864938608457
 20
48.5
 11
348.0
 21
20.0
 39
0.0
 40
3.5
  1
04.07.2020
 72
     2
100
AcDbAttribute
  2
CREATED_DATE
 73
     0
 70
     0
  0
ATTRIB
  5
146
330
112
100
AcDbEntity
  8
TitleBlock
  6
ByLayer
284
     0
  7
FusionTitle
100
AcDbText
 10
399.10146657571624
 20
11.35
 11
402.5
 21
13.1
 39
0.0
 40
3.5
  1
1/1
 72
     4
100
AcDbAttribute
  2
SHEET
 73
     0
 70
     0
  0
ATTRIB
  5
147
330
112
100
AcDbEntity
  8
TitleBlock
  6
ByLayer
284
     0
  7
FusionTitle
100
AcDbText
 10
289.0
 20
19.0
 39
0.0
 40
5.0
  1

100
AcDbAttribute
  2
TITLE_2
 73
     0
 70
     0
  0
ATTRIB
  5
148
330
112
100
AcDbEntity
  8
TitleBlock
  6
ByLayer
284
     0
  7
FusionTitle
100
AcDbText
 10
379.5
 20
26.6
 11
10.0
 21
20.0
 39
0.0
 40
5.0
  1

 72
     4
100
AcDbAttribute
  2
DRAWING_NUMBER
 73
     0
 70
     0
  0
ATTRIB
  5
149
330
112
100
AcDbEntity
  8
TitleBlock
  6
ByLayer
284
     0
  7
FusionTitle
100
AcDbText
 10
289.0
 20
26.5
 39
0.0
 40
5.0
  1
Cylinder
100
AcDbAttribute
  2
TITLE_1
 73
     0
 70
     0
  0
ATTRIB
  5
14A
330
112
100
AcDbEntity
  8
TitleBlock
  6
ByLayer
284
     0
  7
FusionTitle
100
AcDbText
 10
350.0
 20
48.5
 39
0.0
 40
3.5
  1

100
AcDbAttribute
  2
APPROVED_BY
 73
     0
 70
     0
  0
ATTRIB
  5
14B
330
112
100
AcDbEntity
  8
TitleBlock
  6
ByLayer
284
     0
  7
FusionTitle
100
AcDbText
 10
289.0
 20
48.5
 39
0.0
 40
3.5
  1

100
AcDbAttribute
  2
CREATED_BY
 73
     0
 70
     0
1001
FUSIONTITLEBLOCKATTRIBUTEOVERRIDE
1070
     1
  0
ATTRIB
  5
14C
330
112
100
AcDbEntity
  8
TitleBlock
  6
ByLayer
284
     0
  7
FusionTitle
100
AcDbText
 10
255.0
 20
48.5
 39
0.0
 40
3.5
  1

100
AcDbAttribute
  2
TECHNICAL_REFERENCE
 73
     0
 70
     0
  0
ATTRIB
  5
14D
330
112
100
AcDbEntity
  8
TitleBlock
  6
ByLayer
284
     0
  7
FusionTitle
100
AcDbText
 10
231.0
 20
48.5
 39
0.0
 40
3.5
  1

100
AcDbAttribute
  2
DEPT
 73
     0
 70
     0
  0
SEQEND
  5
14E
330
112
100
AcDbEntity
  8
TitleBlock
  6
ByLayer
284
     0
  0
DIMENSION
  5
14F
330
70
100
AcDbEntity
  8
Dimensions
  6
ByLayer
284
     0
100
AcDbDimension
280
     0
  2
*D7
 10
161.35450750397885
 20
136.8685302096566
 30
0.0
 11
158.06750204695294
 21
111.86853020965653
 31
0.0
 70
   128
  1

  1
1.0
  2
1.0
 71
     5
 72
     1
 41
1.0
 42
100.00000000000003
 73
     0
 74
     0
 75
     0
 12
0.0
 22
0.0
  3
ISO-25
100
AcDbAlignedDimension
 13
151.45501256736679
 23
86.86853020965654
 33
0.0
 14
151.45501256736679
 24
136.86853020965654
 34
0.0
1001
ACAD_DIMASSOC_CALC_DIMLFAC
1040
-2.0
1001
ACAD_DIMASSOC_DIMLFAC
1040
-2.0
1001
ACAD_DIMASSOC_OVERRIDDEN_DIMLFAC
1040
0.0
1001
ACAD
1000
DSTYLE
1002
{
1070
   144
1040
2.0
1070
   176
1070
   256
1070
   177
1070
   256
1002
}
  0
DIMENSION
  5
15D
330
70
100
AcDbEntity
  8
Dimensions
  6
ByLayer
284
     0
100
AcDbDimension
280
     0
  2
*D8
 10
118.24094391002399
 20
212.15346535641308
 30
-0.00000000000354
 11
159.28726287923132
 21
246.0119397370845
 31
0.0
 70
   128
  1

  1
1.0
  2
1.0
 71
     5
 72
     1
 41
1.0
 42
75.00000000000017
 73
     0
 74
     0
 75
     0
 12
0.0
 22
0.0
  3
ISO-25
100
AcDbDiametricDimension
 15
147.1690812247096
 25
236.0158389077323
 35
0.00000000000354
 40
0.0
1001
ACAD_DIMASSOC_CALC_DIMLFAC
1040
-2.0
1001
ACAD_DIMASSOC_DIMLFAC
1040
-2.0
1001
ACAD_DIMASSOC_OVERRIDDEN_DIMLFAC
1040
0.0
1001
ACAD_DSTYLE_DIMRADIAL_EXTENSION
1070
   387
1070
     1
1070
   388
1040
0.0
1070
   390
1040
0.0
1001
ACAD
1000
DSTYLE
1002
{
1070
   144
1040
2.0
1070
   176
1070
   256
1070
   177
1070
   256
1002
}
  0
ARC
  5
1B5
330
70
100
AcDbEntity
  8
Visible
  6
ByLayer
284
     0
100
AcDbCircle
 10
-132.70501256736588
 20
-0.00000000000091
 30
136.86853020965654
 40
18.75
 39
0.0
210
0.0
220
1.0
230
0.0
100
AcDbArc
 50
0.0
 51
180.0
  0
ARC
  5
1B6
330
70
100
AcDbEntity
  8
Visible
  6
ByLayer
284
     0
100
AcDbCircle
 10
-132.70501256736588
 20
-0.00000000000091
 30
86.86853020965654
 40
18.75
 39
0.0
210
0.0
220
1.0
230
0.0
100
AcDbArc
 50
0.0
 51
180.0
  0
LINE
  5
1B7
330
70
100
AcDbEntity
  8
Visible
  6
ByLayer
284
     0
100
AcDbLine
 10
113.95501256736588
 20
86.86853020965654
 30
-0.00000000000091
 11
113.95501256736588
 21
136.86853020965654
 31
-0.00000000000091
 39
0.0
210
0.0
220
1.0
230
0.0
  0
LINE
  5
1B8
330
70
100
AcDbEntity
  8
Visible
  6
ByLayer
284
     0
100
AcDbLine
 10
151.45501256736588
 20
86.86853020965654
 30
-0.00000000000091
 11
151.45501256736588
 21
136.86853020965654
 31
-0.00000000000091
 39
0.0
210
0.0
220
1.0
230
0.0
  0
CIRCLE
  5
1B9
330
70
100
AcDbEntity
  8
Visible
  6
ByLayer
284
     0
100
AcDbCircle
 10
-132.70501256736497
 20
224.08465213207833
 30
-24.99999999993353
 40
18.75
 39
0.0
210
0.0
220
0.0000000000003
230
-1.0
  0
ARC
  5
1BA
330
70
100
AcDbEntity
  8
Visible
  6
ByLayer
284
     0
100
AcDbCircle
 10
-307.16715259110606
 20
0.00000000000091
 30
136.86853020965654
 40
18.75
 39
0.0
210
0.0
220
1.0
230
0.0
100
AcDbArc
 50
0.0
 51
180.0
  0
ARC
  5
1BB
330
70
100
AcDbEntity
  8
Visible
  6
ByLayer
284
     0
100
AcDbCircle
 10
-307.16715259110606
 20
0.00000000000091
 30
86.86853020965654
 40
18.75
 39
0.0
210
0.0
220
1.0
230
0.0
100
AcDbArc
 50
0.0
 51
180.0
  0
LINE
  5
1BC
330
70
100
AcDbEntity
  8
Visible
  6
ByLayer
284
     0
100
AcDbLine
 10
288.41715259110606
 20
86.86853020965654
 30
-0.00000000000455
 11
288.41715259110606
 21
136.86853020965654
 31
-0.00000000000455
 39
0.0
210
0.0
220
1.0
230
0.0
  0
LINE
  5
1BD
330
70
100
AcDbEntity
  8
Visible
  6
ByLayer
284
     0
100
AcDbLine
 10
325.91715259110606
 20
86.86853020965654
 30
0.00000000000637
 11
325.91715259110606
 21
136.86853020965654
 31
0.00000000000637
 39
0.0
210
0.0
220
1.0
230
0.0
  0
CIRCLE
  5
1BE
330
70
100
AcDbEntity
  8
Visible
  6
ByLayer
284
     0
100
AcDbCircle
 10
-304.84443072268459
 20
-128.89321579989578
 30
207.98886313955629
 40
18.75
 39
0.0
210
-0.0
220
0.81754712484254
230
0.57586170098531
  0
ARC
  5
1BF
330
70
100
AcDbEntity
  8
Visible
  6
ByLayer
284
     0
100
AcDbCircle
 10
-304.84443072268459
 20
-128.89321579989573
 30
157.98886313955626
 40
18.75
 39
0.0
210
-0.0
220
0.81754712484254
230
0.57586170098531
100
AcDbArc
 50
0.00000000000753
 51
180.00000000000938
  0
LINE
  5
1C0
330
70
100
AcDbEntity
  8
Visible
  6
ByLayer
284
     0
100
AcDbLine
 10
286.09443072268459
 20
203.3880073128806
 30
-14.39654252463326
 11
286.09443072268459
 21
244.26536355500758
 31
14.39654252463233
 39
0.0
210
-0.0
220
0.81754712484254
230
0.57586170098531
  0
LINE
  5
1C1
330
70
100
AcDbEntity
  8
Visible
  6
ByLayer
284
     0
100
AcDbLine
 10
323.59443072268368
 20
203.3880073128806
 30
-14.39654252463372
 11
323.59443072268368
 21
244.26536355500758
 31
14.39654252463188
 39
0.0
210
-0.0
220
0.81754712484254
230
0.57586170098531
  0
ENDSEC
  0
EOF
