999
LibreDWG UNKNOWN
  0
SECTION
  2
HEADER
  9
$ACADVER
  1
AC1027
  9
$HANDSEED
  5
390
  0
ENDSEC
  0
SECTION
  2
ENTITIES
  0
INSERT
  5
E6
330
70
100
AcDbEntity
  8
Border
  6
ByLayer
284
     0
100
AcDbBlockReference
  2
ISO_A3_SHEET
 10
0.0
 20
0.0
 30
0.0
 50
0.0
210
0.0
220
0.0
230
1.0
  0
INSERT
  5
12C
330
70
100
AcDbEntity
  8
TitleBlock
  6
ByLayer
284
     0
100
AcDbBlockReference
  2
ISO_TITLEBLOCK
 66
     1
 10
410.0
 20
10.0
 30
0.0
 50
0.0
210
0.0
220
0.0
230
1.0
  0
ATTRIB
  5
159
330
12C
100
AcDbEntity
  8
TitleBlock
  6
ByLayer
284
     0
  7
FusionTitle
100
AcDbText
 10
360.0
 20
11.5
 39
0.0
 40
3.5
  1

100
AcDbAttribute
  2
DATE_OF_ISSUE
 73
     0
 70
     0
  0
ATTRIB
  5
15A
330
12C
100
AcDbEntity
  8
TitleBlock
  6
ByLayer
284
     0
  7
FusionTitle
100
AcDbText
 10
354.0
 20
13.1
 11
10.0
 21
20.0
 39
0.0
 40
3.5
  1

 72
     4
100
AcDbAttribute
  2
REV
 73
     0
 70
     0
  0
ATTRIB
  5
15B
330
12C
100
AcDbEntity
  8
TitleBlock
  6
ByLayer
284
     0
  7
FusionTitle
100
AcDbText
 10
289.0
 20
11.5
 39
0.0
 40
5.0
  1

100
AcDbAttribute
  2
TITLE_3
 73
     0
 70
     0
  0
ATTRIB
  5
15C
330
12C
100
AcDbEntity
  8
TitleBlock
  6
ByLayer
284
     0
  7
FusionTitle
100
AcDbText
 10
350.0
 20
38.5
 39
0.0
 40
3.5
  1

100
AcDbAttribute
  2
DOCUMENT_STATUS
 73
     0
 70
     0
  0
ATTRIB
  5
15D
330
12C
100
AcDbEntity
  8
TitleBlock
  6
ByLayer
284
     0
  7
FusionTitle
100
AcDbText
 10
289.0
 20
38.5
 39
0.0
 40
3.5
  1

100
AcDbAttribute
  2
DOCUMENT_TYPE
 73
     0
 70
     0
  0
ATTRIB
  5
15E
330
12C
100
AcDbEntity
  8
TitleBlock
  6
ByLayer
284
     0
  7
FusionTitle
100
AcDbText
 10
409.0
 20
48.5
 11
10.0
 21
20.0
 39
0.0
 40
3.5
  1

 72
     2
100
AcDbAttribute
  2
APPROVED_DATE
 73
     0
 70
     0
  0
ATTRIB
  5
15F
330
12C
100
AcDbEntity
  8
TitleBlock
  6
ByLayer
284
     0
  7
FusionTitle
100
AcDbText
 10
323.52864938608457
 20
48.5
 11
348.0
 21
20.0
 39
0.0
 40
3.5
  1
04.07.2020
 72
     2
100
AcDbAttribute
  2
CREATED_DATE
 73
     0
 70
     0
  0
ATTRIB
  5
160
330
12C
100
AcDbEntity
  8
TitleBlock
  6
ByLayer
284
     0
  7
FusionTitle
100
AcDbText
 10
399.10146657571624
 20
11.35
 11
402.5
 21
13.1
 39
0.0
 40
3.5
  1
1/1
 72
     4
100
AcDbAttribute
  2
SHEET
 73
     0
 70
     0
  0
ATTRIB
  5
161
330
12C
100
AcDbEntity
  8
TitleBlock
  6
ByLayer
284
     0
  7
FusionTitle
100
AcDbText
 10
289.0
 20
19.0
 39
0.0
 40
5.0
  1

100
AcDbAttribute
  2
TITLE_2
 73
     0
 70
     0
  0
ATTRIB
  5
162
330
12C
100
AcDbEntity
  8
TitleBlock
  6
ByLayer
284
     0
  7
FusionTitle
100
AcDbText
 10
379.5
 20
26.6
 11
10.0
 21
20.0
 39
0.0
 40
5.0
  1

 72
     4
100
AcDbAttribute
  2
DRAWING_NUMBER
 73
     0
 70
     0
  0
ATTRIB
  5
163
330
12C
100
AcDbEntity
  8
TitleBlock
  6
ByLayer
284
     0
  7
FusionTitle
100
AcDbText
 10
289.0
 20
26.5
 39
0.0
 40
5.0
  1
P003
100
AcDbAttribute
  2
TITLE_1
 73
     0
 70
     0
  0
ATTRIB
  5
164
330
12C
100
AcDbEntity
  8
TitleBlock
  6
ByLayer
284
     0
  7
FusionTitle
100
AcDbText
 10
350.0
 20
48.5
 39
0.0
 40
3.5
  1

100
AcDbAttribute
  2
APPROVED_BY
 73
     0
 70
     0
  0
ATTRIB
  5
165
330
12C
100
AcDbEntity
  8
TitleBlock
  6
ByLayer
284
     0
  7
FusionTitle
100
AcDbText
 10
289.0
 20
48.5
 39
0.0
 40
3.5
  1

100
AcDbAttribute
  2
CREATED_BY
 73
     0
 70
     0
1001
FUSIONTITLEBLOCKATTRIBUTEOVERRIDE
1070
     1
  0
ATTRIB
  5
166
330
12C
100
AcDbEntity
  8
TitleBlock
  6
ByLayer
284
     0
  7
FusionTitle
100
AcDbText
 10
255.0
 20
48.5
 39
0.0
 40
3.5
  1

100
AcDbAttribute
  2
TECHNICAL_REFERENCE
 73
     0
 70
     0
  0
ATTRIB
  5
167
330
12C
100
AcDbEntity
  8
TitleBlock
  6
ByLayer
284
     0
  7
FusionTitle
100
AcDbText
 10
231.0
 20
48.5
 39
0.0
 40
3.5
  1

100
AcDbAttribute
  2
DEPT
 73
     0
 70
     0
  0
SEQEND
  5
168
330
12C
100
AcDbEntity
  8
TitleBlock
  6
ByLayer
284
     0
  0
DIMENSION
  5
169
330
70
100
AcDbEntity
  8
Dimensions
  6
ByLayer
284
     0
100
AcDbDimension
280
     0
  2
*D7
 10
173.99541420053538
 20
87.92122644493423
 30
0.0
 11
133.99541420053538
 21
91.20823190196016
 31
0.0
 70
   128
  1

  1
1.0
  2
1.0
 71
     5
 72
     1
 41
1.0
 42
160.0
 73
     0
 74
     0
 75
     0
 12
0.0
 22
0.0
  3
ISO-25
100
AcDbAlignedDimension
 13
93.99541420053538
 23
97.82072138154589
 33
0.0
 14
173.99541420053538
 24
97.82072138154589
 34
0.0
1001
ACAD_DIMASSOC_CALC_DIMLFAC
1040
-2.0
1001
ACAD_DIMASSOC_DIMLFAC
1040
-2.0
1001
ACAD_DIMASSOC_OVERRIDDEN_DIMLFAC
1040
0.0
1001
ACAD
1000
DSTYLE
1002
{
1070
   144
1040
2.0
1070
   176
1070
   256
1070
   177
1070
   256
1002
}
  0
DIMENSION
  5
177
330
70
100
AcDbEntity
  8
Dimensions
  6
ByLayer
284
     0
100
AcDbDimension
280
     0
  2
*D8
 10
314.10154445993885
 20
88.02173150832256
 30
0.0
 11
289.10154445993885
 21
91.30873696534849
 31
0.0
 70
   128
  1

  1
1.0
  2
1.0
 71
     5
 72
     1
 41
1.0
 42
100.0
 73
     0
 74
     0
 75
     0
 12
0.0
 22
0.0
  3
ISO-25
100
AcDbAlignedDimension
 13
264.10154445993885
 23
97.82072138154589
 33
0.0
 14
314.10154445993885
 24
97.82072138154589
 34
0.0
1001
ACAD_DIMASSOC_CALC_DIMLFAC
1040
-2.0
1001
ACAD_DIMASSOC_DIMLFAC
1040
-2.0
1001
ACAD_DIMASSOC_OVERRIDDEN_DIMLFAC
1040
0.0
1001
ACAD
1000
DSTYLE
1002
{
1070
   144
1040
2.0
1070
   176
1070
   256
1070
   177
1070
   256
1002
}
  0
DIMENSION
  5
184
330
70
100
AcDbEntity
  8
Dimensions
  6
ByLayer
284
     0
100
AcDbDimension
280
     0
  2
*D9
 10
304.10154445994158
 20
127.51920619138089
 30
0.0
 11
289.10154445994158
 21
130.80621164840682
 31
0.0
 70
   128
  1

  1
1.0
  2
1.0
 71
     5
 72
     1
 41
1.0
 42
60.0
 73
     0
 74
     0
 75
     0
 12
0.0
 22
0.0
  3
ISO-25
100
AcDbAlignedDimension
 13
274.10154445994158
 23
122.82072138154589
 33
0.0
 14
304.10154445994158
 24
122.82072138154589
 34
0.0
1001
ACAD_DIMASSOC_CALC_DIMLFAC
1040
-2.0
1001
ACAD_DIMASSOC_DIMLFAC
1040
-2.0
1001
ACAD_DIMASSOC_OVERRIDDEN_DIMLFAC
1040
0.0
1001
ACAD
1000
DSTYLE
1002
{
1070
   144
1040
2.0
1070
   176
1070
   256
1070
   177
1070
   256
1002
}
  0
DIMENSION
  5
191
330
70
100
AcDbEntity
  8
Dimensions
  6
ByLayer
284
     0
100
AcDbDimension
280
     0
  2
*D10
 10
183.89490913714744
 20
107.82072138154595
 30
0.0
 11
180.60790368012152
 21
102.82072138154587
 31
0.0
 70
   128
  1

  1
1.0
  2
1.0
 71
     5
 72
     1
 41
1.0
 42
20.0
 73
     0
 74
     0
 75
     0
 12
0.0
 22
0.0
  3
ISO-25
100
AcDbAlignedDimension
 13
173.99541420053538
 23
97.82072138154589
 33
0.0
 14
173.99541420053538
 24
107.82072138154589
 34
0.0
1001
ACAD_DIMASSOC_CALC_DIMLFAC
1040
-2.0
1001
ACAD_DIMASSOC_DIMLFAC
1040
-2.0
1001
ACAD_DIMASSOC_OVERRIDDEN_DIMLFAC
1040
0.0
1001
ACAD
1000
DSTYLE
1002
{
1070
   144
1040
2.0
1070
   176
1070
   256
1070
   177
1070
   256
1002
}
  0
DIMENSION
  5
1A0
330
70
100
AcDbEntity
  8
Dimensions
  6
ByLayer
284
     0
100
AcDbDimension
280
     0
  2
*D11
 10
183.89490913714749
 20
122.82072138154595
 30
0.0
 11
180.60670995570138
 21
115.32072138154587
 31
0.0
 70
   128
  1

  1
1.0
  2
1.0
 71
     5
 72
     1
 41
1.0
 42
30.0
 73
     0
 74
     0
 75
     0
 12
0.0
 22
0.0
  3
ISO-25
100
AcDbAlignedDimension
 13
163.99541420053538
 23
107.82072138154589
 33
0.0
 14
163.99541420053538
 24
122.82072138154589
 34
0.0
1001
ACAD_DIMASSOC_CALC_DIMLFAC
1040
-2.0
1001
ACAD_DIMASSOC_DIMLFAC
1040
-2.0
1001
ACAD_DIMASSOC_OVERRIDDEN_DIMLFAC
1040
0.0
1001
ACAD
1000
DSTYLE
1002
{
1070
   144
1040
2.0
1070
   176
1070
   256
1070
   177
1070
   256
1002
}
  0
DIMENSION
  5
1AD
330
70
100
AcDbEntity
  8
Dimensions
  6
ByLayer
284
     0
100
AcDbDimension
280
     0
  2
*D12
 10
163.99541420053538
 20
132.72021631815755
 30
0.0
 11
133.99541420053538
 21
136.00722177518347
 31
0.0
 70
   128
  1

  1
1.0
  2
1.0
 71
     5
 72
     1
 41
1.0
 42
120.0
 73
     0
 74
     0
 75
     0
 12
0.0
 22
0.0
  3
ISO-25
100
AcDbAlignedDimension
 13
103.99541420053538
 23
122.82072138154589
 33
0.0
 14
163.99541420053538
 24
122.82072138154589
 34
0.0
1001
ACAD_DIMASSOC_CALC_DIMLFAC
1040
-2.0
1001
ACAD_DIMASSOC_DIMLFAC
1040
-2.0
1001
ACAD_DIMASSOC_OVERRIDDEN_DIMLFAC
1040
0.0
1001
ACAD
1000
DSTYLE
1002
{
1070
   144
1040
2.0
1070
   176
1070
   256
1070
   177
1070
   256
1002
}
  0
DIMENSION
  5
1BA
330
70
100
AcDbEntity
  8
Dimensions
  6
ByLayer
284
     0
100
AcDbDimension
280
     0
  2
*D13
 10
103.99541420053538
 20
115.96260357260803
 30
0.0
 11
98.99541420053521
 21
119.24960902963396
 31
0.0
 70
   128
  1

  1
1.0
  2
1.0
 71
     5
 72
     1
 41
1.0
 42
20.00000000000068
 73
     0
 74
     0
 75
     0
 12
0.0
 22
0.0
  3
ISO-25
100
AcDbAlignedDimension
 13
93.99541420053504
 23
107.82072138154589
 33
0.0
 14
103.99541420053538
 24
115.96260357260803
 34
0.0
 10
103.99541420053538
 20
115.96260357260803
 30
0.0
 50
180.0
100
AcDbRotatedDimension
1001
ACAD_DIMASSOC_CALC_DIMLFAC
1040
-2.0
1001
ACAD_DIMASSOC_DIMLFAC
1040
-2.0
1001
ACAD_DIMASSOC_OVERRIDDEN_DIMLFAC
1040
0.0
1001
ACAD
1000
DSTYLE
1002
{
1070
   144
1040
2.0
1070
   176
1070
   256
1070
   177
1070
   256
1002
}
  0
LINE
  5
2DD
330
70
100
AcDbEntity
  8
Visible
  6
ByLayer
284
     0
100
AcDbLine
 10
163.99541420053447
 20
107.82072138154589
 30
14.99999999999909
 11
163.99541420053447
 21
122.82072138154589
 31
14.99999999999909
 39
0.0
210
0.0
220
1.0
230
0.0
  0
LINE
  5
2DE
330
70
100
AcDbEntity
  8
Visible
  6
ByLayer
284
     0
100
AcDbLine
 10
103.99541420053447
 20
122.82072138154589
 30
14.99999999999909
 11
163.99541420053447
 21
122.82072138154589
 31
14.99999999999909
 39
0.0
210
0.0
220
1.0
230
0.0
  0
LINE
  5
2DF
330
70
100
AcDbEntity
  8
Visible
  6
ByLayer
284
     0
100
AcDbLine
 10
103.99541420053447
 20
107.82072138154589
 30
14.99999999999909
 11
103.99541420053447
 21
122.82072138154589
 31
14.99999999999909
 39
0.0
210
0.0
220
1.0
230
0.0
  0
LINE
  5
2E0
330
70
100
AcDbEntity
  8
Visible
  6
ByLayer
284
     0
100
AcDbLine
 10
173.99541420053447
 20
97.82072138154589
 30
24.99999999999909
 11
173.99541420053447
 21
107.82072138154589
 31
24.99999999999909
 39
0.0
210
0.0
220
1.0
230
0.0
  0
LINE
  5
2E1
330
70
100
AcDbEntity
  8
Visible
  6
ByLayer
284
     0
100
AcDbLine
 10
93.99541420053447
 20
97.82072138154589
 30
24.99999999999909
 11
173.99541420053447
 21
97.82072138154589
 31
24.99999999999909
 39
0.0
210
0.0
220
1.0
230
0.0
  0
LINE
  5
2E2
330
70
100
AcDbEntity
  8
Visible
  6
ByLayer
284
     0
100
AcDbLine
 10
93.99541420053447
 20
107.82072138154589
 30
24.99999999999909
 11
173.99541420053447
 21
107.82072138154589
 31
24.99999999999909
 39
0.0
210
0.0
220
1.0
230
0.0
  0
LINE
  5
2E3
330
70
100
AcDbEntity
  8
Visible
  6
ByLayer
284
     0
100
AcDbLine
 10
93.99541420053447
 20
97.82072138154589
 30
24.99999999999909
 11
93.99541420053447
 21
107.82072138154589
 31
24.99999999999909
 39
0.0
210
0.0
220
1.0
230
0.0
  0
LINE
  5
2E4
330
70
100
AcDbEntity
  8
Visible
  6
ByLayer
284
     0
100
AcDbLine
 10
274.10154445994067
 20
107.82072138154589
 30
29.99999999999636
 11
274.10154445994067
 21
122.82072138154589
 31
29.99999999999636
 39
0.0
210
0.0
220
1.0
230
0.0
  0
LINE
  5
2E5
330
70
100
AcDbEntity
  8
Visible
  6
ByLayer
284
     0
100
AcDbLine
 10
304.10154445994067
 20
107.82072138154589
 30
30.00000000000546
 11
304.10154445994067
 21
122.82072138154589
 31
30.00000000000546
 39
0.0
210
0.0
220
1.0
230
0.0
  0
LINE
  5
2E6
330
70
100
AcDbEntity
  8
Visible
  6
ByLayer
284
     0
100
AcDbLine
 10
274.10154445994067
 20
122.82072138154589
 30
29.99999999999636
 11
304.10154445994067
 21
122.82072138154589
 31
30.00000000000546
 39
0.0
210
0.0
220
1.0
230
0.0
  0
LINE
  5
2E7
330
70
100
AcDbEntity
  8
Visible
  6
ByLayer
284
     0
100
AcDbLine
 10
264.10154445993794
 20
97.82072138154589
 30
39.99999999999363
 11
264.10154445993794
 21
107.82072138154589
 31
39.99999999999363
 39
0.0
210
0.0
220
1.0
230
0.0
  0
LINE
  5
2E8
330
70
100
AcDbEntity
  8
Visible
  6
ByLayer
284
     0
100
AcDbLine
 10
314.10154445993794
 20
97.82072138154589
 30
40.00000000000819
 11
314.10154445993794
 21
107.82072138154589
 31
40.00000000000819
 39
0.0
210
0.0
220
1.0
230
0.0
  0
LINE
  5
2E9
330
70
100
AcDbEntity
  8
Visible
  6
ByLayer
284
     0
100
AcDbLine
 10
264.10154445993794
 20
97.82072138154589
 30
39.99999999999363
 11
314.10154445993794
 21
97.82072138154589
 31
40.00000000000819
 39
0.0
210
0.0
220
1.0
230
0.0
  0
LINE
  5
2EA
330
70
100
AcDbEntity
  8
Visible
  6
ByLayer
284
     0
100
AcDbLine
 10
264.10154445993794
 20
107.82072138154589
 30
39.99999999999363
 11
314.10154445993794
 21
107.82072138154589
 31
40.00000000000819
 39
0.0
210
0.0
220
1.0
230
0.0
  0
LINE
  5
2EB
330
70
100
AcDbEntity
  8
Visible
  6
ByLayer
284
     0
100
AcDbLine
 10
163.99541420053538
 20
230.31373736706519
 30
12.5
 11
103.99541420053538
 21
230.31373736706519
 31
12.5
 39
0.0
  0
LINE
  5
2EC
330
70
100
AcDbEntity
  8
Visible
  6
ByLayer
284
     0
100
AcDbLine
 10
163.99541420053538
 20
200.31373736706519
 30
12.5
 11
163.99541420053538
 21
230.31373736706519
 31
12.5
 39
0.0
  0
LINE
  5
2ED
330
70
100
AcDbEntity
  8
Visible
  6
ByLayer
284
     0
100
AcDbLine
 10
103.99541420053538
 20
200.31373736706519
 30
12.5
 11
163.99541420053538
 21
200.31373736706519
 31
12.5
 39
0.0
  0
LINE
  5
2EE
330
70
100
AcDbEntity
  8
Visible
  6
ByLayer
284
     0
100
AcDbLine
 10
103.99541420053538
 20
230.31373736706519
 30
12.5
 11
103.99541420053538
 21
200.31373736706519
 31
12.5
 39
0.0
  0
LINE
  5
2EF
330
70
100
AcDbEntity
  8
Visible
  6
ByLayer
284
     0
100
AcDbLine
 10
173.99541420053538
 20
240.31373736706519
 30
-2.5
 11
93.99541420053538
 21
240.31373736706519
 31
-2.5
 39
0.0
  0
LINE
  5
2F0
330
70
100
AcDbEntity
  8
Visible
  6
ByLayer
284
     0
100
AcDbLine
 10
173.99541420053538
 20
190.31373736706519
 30
-2.5
 11
173.99541420053538
 21
240.31373736706519
 31
-2.5
 39
0.0
  0
LINE
  5
2F1
330
70
100
AcDbEntity
  8
Visible
  6
ByLayer
284
     0
100
AcDbLine
 10
93.99541420053538
 20
190.31373736706519
 30
-2.5
 11
173.99541420053538
 21
190.31373736706519
 31
-2.5
 39
0.0
  0
LINE
  5
2F2
330
70
100
AcDbEntity
  8
Visible
  6
ByLayer
284
     0
100
AcDbLine
 10
93.99541420053538
 20
240.31373736706519
 30
-2.5
 11
93.99541420053538
 21
190.31373736706519
 31
-2.5
 39
0.0
  0
LINE
  5
2F3
330
70
100
AcDbEntity
  8
Visible
  6
ByLayer
284
     0
100
AcDbLine
 10
318.34055270338467
 20
222.00482056323568
 30
15.86966800104866
 11
275.91414583218557
 21
246.43656339077216
 31
-18.81591895388946
 39
0.0
210
0.0
220
0.81754712484254
230
0.57586170098531
  0
LINE
  5
2F4
330
70
100
AcDbEntity
  8
Visible
  6
ByLayer
284
     0
100
AcDbLine
 10
318.34055270338467
 20
209.74161369059757
 30
7.23174248626898
 11
318.34055270338467
 21
222.00482056323568
 31
15.86966800104866
 39
0.0
210
0.0
220
0.81754712484254
230
0.57586170098531
  0
LINE
  5
2F5
330
70
100
AcDbEntity
  8
Visible
  6
ByLayer
284
     0
100
AcDbLine
 10
318.34055270338467
 20
209.74161369059757
 30
7.23174248626898
 11
297.12734926779194
 21
197.52574227682581
 31
24.57453596374349
 39
0.0
210
0.0
220
0.81754712484254
230
0.57586170098531
  0
LINE
  5
2F6
330
70
100
AcDbEntity
  8
Visible
  6
ByLayer
284
     0
100
AcDbLine
 10
297.12734926779194
 20
209.78894914946392
 30
33.21246147852317
 11
318.34055270338467
 21
222.00482056323568
 31
15.86966800104866
 39
0.0
210
0.0
220
0.81754712484254
230
0.57586170098531
  0
LINE
  5
2F7
330
70
100
AcDbEntity
  8
Visible
  6
ByLayer
284
     0
100
AcDbLine
 10
297.12734926779194
 20
197.52574227682581
 30
24.57453596374349
 11
297.12734926779194
 21
209.78894914946392
 31
33.21246147852317
 39
0.0
210
0.0
220
0.81754712484254
230
0.57586170098531
  0
LINE
  5
2F8
330
70
100
AcDbEntity
  8
Visible
  6
ByLayer
284
     0
100
AcDbLine
 10
297.12734926779194
 20
197.52574227682581
 30
24.57453596374349
 11
254.70094239659193
 21
221.95748510436229
 31
-10.11105099119462
 39
0.0
210
0.0
220
0.81754712484254
230
0.57586170098531
  0
LINE
  5
2F9
330
70
100
AcDbEntity
  8
Visible
  6
ByLayer
284
     0
100
AcDbLine
 10
254.70094239659193
 20
234.2206919770004
 30
-1.47312547641494
 11
297.12734926779194
 21
209.78894914946392
 31
33.21246147852317
 39
0.0
210
0.0
220
0.81754712484254
230
0.57586170098531
  0
LINE
  5
2FA
330
70
100
AcDbEntity
  8
Visible
  6
ByLayer
284
     0
100
AcDbLine
 10
254.70094239659193
 20
221.95748510436229
 30
-10.11105099119462
 11
254.70094239659193
 21
234.2206919770004
 31
-1.47312547641494
 39
0.0
210
0.0
220
0.81754712484254
230
0.57586170098531
  0
LINE
  5
2FB
330
70
100
AcDbEntity
  8
Visible
  6
ByLayer
284
     0
100
AcDbLine
 10
275.91414583218557
 20
246.43656339077216
 30
-18.81591895388946
 11
254.70094239659193
 21
234.2206919770004
 31
-1.47312547641494
 39
0.0
210
0.0
220
0.81754712484254
230
0.57586170098531
  0
LINE
  5
2FC
330
70
100
AcDbEntity
  8
Visible
  6
ByLayer
284
     0
100
AcDbLine
 10
332.48268832711619
 20
209.74161369059894
 30
7.23174248626716
 11
318.34055270338467
 21
217.88552796644322
 31
-4.33011983204373
 39
0.0
210
0.0
220
0.81754712484254
230
0.57586170098531
  0
LINE
  5
2FD
330
70
100
AcDbEntity
  8
Visible
  6
ByLayer
284
     0
100
AcDbLine
 10
332.48268832711619
 20
201.56614244217354
 30
1.47312547641404
 11
332.48268832711619
 21
209.74161369059894
 31
7.23174248626716
 39
0.0
210
0.0
220
0.81754712484254
230
0.57586170098531
  0
LINE
  5
2FE
330
70
100
AcDbEntity
  8
Visible
  6
ByLayer
284
     0
100
AcDbLine
 10
297.12734926779376
 20
181.20635675255386
 30
30.37778127220444
 11
332.48268832711619
 21
201.56614244217354
 31
1.47312547641404
 39
0.0
210
0.0
220
0.81754712484254
230
0.57586170098531
  0
LINE
  5
2FF
330
70
100
AcDbEntity
  8
Visible
  6
ByLayer
284
     0
100
AcDbLine
 10
297.12734926779376
 20
189.38182800097925
 30
36.13639828205756
 11
332.48268832711619
 21
209.74161369059894
 31
7.23174248626716
 39
0.0
210
0.0
220
0.81754712484254
230
0.57586170098531
  0
LINE
  5
300
330
70
100
AcDbEntity
  8
Visible
  6
ByLayer
284
     0
100
AcDbLine
 10
297.12734926779376
 20
181.20635675255386
 30
30.37778127220444
 11
297.12734926779376
 21
189.38182800097925
 31
36.13639828205756
 39
0.0
210
0.0
220
0.81754712484254
230
0.57586170098531
  0
LINE
  5
301
330
70
100
AcDbEntity
  8
Visible
  6
ByLayer
284
     0
100
AcDbLine
 10
240.55880677286132
 20
213.78201385593576
 30
-15.86966800104638
 11
297.12734926779376
 21
181.20635675255386
 31
30.37778127220444
 39
0.0
210
0.0
220
0.81754712484254
230
0.57586170098531
  0
LINE
  5
302
330
70
100
AcDbEntity
  8
Visible
  6
ByLayer
284
     0
100
AcDbLine
 10
240.55880677286132
 20
221.95748510436115
 30
-10.11105099119326
 11
297.12734926779376
 21
189.38182800097925
 31
36.13639828205756
 39
0.0
210
0.0
220
0.81754712484254
230
0.57586170098531
  0
LINE
  5
303
330
70
100
AcDbEntity
  8
Visible
  6
ByLayer
284
     0
100
AcDbLine
 10
240.55880677286132
 20
213.78201385593576
 30
-15.86966800104638
 11
240.55880677286132
 21
221.95748510436115
 31
-10.11105099119326
 39
0.0
210
0.0
220
0.81754712484254
230
0.57586170098531
  0
LINE
  5
304
330
70
100
AcDbEntity
  8
Visible
  6
ByLayer
284
     0
100
AcDbLine
 10
254.70094239659193
 20
230.10139938020998
 30
-21.67291330951097
 11
240.55880677286132
 21
221.95748510436115
 31
-10.11105099119326
 39
0.0
210
0.0
220
0.81754712484254
230
0.57586170098531
  0
ENDSEC
  0
EOF
