# Blender v2.82 (sub 7) OBJ File: ''
# www.blender.org
mtllib front.mtl
o front
v -9.595755 0.000000 -2.257346
v -9.595755 0.000000 -7.336377
v 7.337922 0.000000 -7.336377
v 7.337922 -0.000000 9.593723
v 2.257821 -0.000000 9.593723
v 2.257821 0.000000 -2.257346
v -9.595755 16.933678 -2.257345
v -9.595755 16.933678 -7.336376
v 7.337922 16.933678 -7.336376
v 7.337922 16.933678 9.593724
v 2.257821 16.933678 9.593724
v 2.257821 16.933678 -2.257345
vt 0.000000 0.000000
vt 0.000000 0.000000
vt 0.000000 0.000000
vt 0.000000 0.000000
vt 0.000000 0.000000
vt 0.000000 0.000000
vt 0.000000 0.000000
vt 0.000000 0.000000
vt 0.000000 0.000000
vt 0.000000 0.000000
vt 0.000000 0.000000
vt 0.000000 0.000000
vn -0.3015 -0.9045 0.3015
vn -0.5774 -0.5774 -0.5774
vn 0.5774 -0.5774 -0.5774
vn -0.3015 0.9045 0.3015
vn 0.5774 0.5774 0.5774
vn 0.5774 0.5774 -0.5774
vn -0.5774 0.5774 0.5774
vn -0.5774 -0.5774 0.5774
vn -0.5774 0.5774 -0.5774
vn 0.5774 -0.5774 0.5774
usemtl None.002
s 1
f 6/1/1 2/2/2 3/3/3
f 12/4/4 10/5/5 9/6/6
f 6/1/1 7/7/7 1/8/8
f 1/8/8 8/9/9 2/2/2
f 2/2/2 9/6/6 3/3/3
f 3/3/3 10/5/5 4/10/10
f 4/10/10 11/11/7 5/12/8
f 5/12/8 12/4/4 6/1/1
f 6/1/1 1/8/8 2/2/2
f 3/3/3 4/10/10 6/1/1
f 4/10/10 5/12/8 6/1/1
f 8/9/9 7/7/7 12/4/4
f 12/4/4 11/11/7 10/5/5
f 9/6/6 8/9/9 12/4/4
f 6/1/1 12/4/4 7/7/7
f 1/8/8 7/7/7 8/9/9
f 2/2/2 8/9/9 9/6/6
f 3/3/3 9/6/6 10/5/5
f 4/10/10 10/5/5 11/11/7
f 5/12/8 11/11/7 12/4/4
