# Blender v2.82 (sub 7) OBJ File: ''
# www.blender.org
mtllib front.mtl
o front
v -8.465113 -8.466809 -8.466812
v -8.465052 8.466870 -8.466812
v 8.465052 8.466809 -8.466873
v 8.464991 -8.466870 -8.466873
v -8.465052 -8.466809 8.466873
v -8.464991 8.466870 8.466873
v 8.465113 8.466809 8.466812
v 8.465052 -8.466870 8.466812
vt 0.000000 0.000000
vt 0.000000 0.000000
vt 0.000000 0.000000
vt 0.000000 0.000000
vt 0.000000 0.000000
vt 0.000000 0.000000
vt 0.000000 0.000000
vt 0.000000 0.000000
vn -0.5774 0.5774 -0.5773
vn 0.5773 -0.5774 -0.5774
vn -0.5774 -0.5773 -0.5773
vn 0.5774 -0.5774 0.5773
vn -0.5773 0.5774 0.5774
vn -0.5774 -0.5773 0.5774
vn 0.5774 0.5773 0.5773
vn 0.5774 0.5773 -0.5774
usemtl None.002
s 1
f 2/1/1 4/2/2 1/3/3
f 8/4/4 6/5/5 5/6/6
f 4/2/2 5/6/6 1/3/3
f 1/3/3 6/5/5 2/1/1
f 2/1/1 7/7/7 3/8/8
f 3/8/8 8/4/4 4/2/2
f 2/1/1 3/8/8 4/2/2
f 8/4/4 7/7/7 6/5/5
f 4/2/2 8/4/4 5/6/6
f 1/3/3 5/6/6 6/5/5
f 2/1/1 6/5/5 7/7/7
f 3/8/8 7/7/7 8/4/4
