# Blender v2.82 (sub 7) OBJ File: ''
# www.blender.org
mtllib front.mtl
o front
v 5.079049 -3.386756 8.466824
v 5.079073 3.386719 8.466824
v 0.000043 3.386738 8.466842
v 0.000061 8.466841 8.466842
v -5.078970 8.466859 8.466860
v -5.079031 -8.466823 8.466860
v -0.000000 -8.466841 8.466842
v 0.000018 -3.386737 8.466842
v 5.078989 -3.386756 -8.466858
v 5.079013 3.386719 -8.466858
v -0.000018 3.386738 -8.466840
v 0.000000 8.466841 -8.466840
v -5.079031 8.466859 -8.466822
v -5.079092 -8.466823 -8.466822
v -0.000061 -8.466841 -8.466840
v -0.000043 -3.386737 -8.466840
vt 0.000000 0.000000
vt 0.000000 0.000000
vt 0.000000 0.000000
vt 0.000000 0.000000
vt 0.000000 0.000000
vt 0.000000 0.000000
vt 0.000000 0.000000
vt 0.000000 0.000000
vt 0.000000 0.000000
vt 0.000000 0.000000
vt 0.000000 0.000000
vt 0.000000 0.000000
vt 0.000000 0.000000
vt 0.000000 0.000000
vt 0.000000 0.000000
vt 0.000000 0.000000
vn 0.3015 0.3015 0.9045
vn -0.5774 -0.5773 0.5774
vn 0.3015 -0.3015 0.9045
vn 0.3015 -0.3015 -0.9045
vn -0.5774 -0.5773 -0.5773
vn 0.3015 0.3015 -0.9045
vn 0.5773 -0.5774 -0.5774
vn 0.5774 -0.5774 0.5773
vn 0.5774 0.5773 -0.5774
vn 0.5774 0.5773 0.5773
vn -0.5774 0.5774 -0.5773
vn -0.5773 0.5774 0.5774
usemtl None.002
s 1
f 3/1/1 6/2/2 8/3/3
f 16/4/4 14/5/5 11/6/6
f 8/3/3 9/7/7 1/8/8
f 1/8/8 10/9/9 2/10/10
f 2/10/10 11/6/6 3/1/1
f 3/1/1 12/11/9 4/12/10
f 4/12/10 13/13/11 5/14/12
f 5/14/12 14/5/5 6/2/2
f 6/2/2 15/15/7 7/16/8
f 7/16/8 16/4/4 8/3/3
f 8/3/3 1/8/8 2/10/10
f 3/1/1 4/12/10 5/14/12
f 8/3/3 2/10/10 3/1/1
f 6/2/2 7/16/8 8/3/3
f 3/1/1 5/14/12 6/2/2
f 10/9/9 9/7/7 16/4/4
f 16/4/4 15/15/7 14/5/5
f 14/5/5 13/13/11 11/6/6
f 13/13/11 12/11/9 11/6/6
f 11/6/6 10/9/9 16/4/4
f 8/3/3 16/4/4 9/7/7
f 1/8/8 9/7/7 10/9/9
f 2/10/10 10/9/9 11/6/6
f 3/1/1 11/6/6 12/11/9
f 4/12/10 12/11/9 13/13/11
f 5/14/12 13/13/11 14/5/5
f 6/2/2 14/5/5 15/15/7
f 7/16/8 15/15/7 16/4/4
