# Blender v2.82 (sub 7) OBJ File: ''
# www.blender.org
mtllib right.mtl
o right
v -8.466840 -0.000000 9.593723
v -8.466840 0.000000 -2.257346
v 8.466834 0.000000 -2.257346
v 8.466834 -0.000000 9.593723
v -8.466840 0.000000 -7.336377
v 8.466834 0.000000 -7.336377
v -8.466840 16.933678 9.593724
v -8.466840 16.933678 -2.257345
v 8.466834 16.933678 -2.257345
v 8.466834 16.933678 9.593724
v -8.466840 16.933678 -7.336376
v 8.466834 16.933678 -7.336376
vt 0.000000 0.000000
vt 0.000000 0.000000
vt 0.000000 0.000000
vt 0.000000 0.000000
vt 0.000000 0.000000
vt 0.000000 0.000000
vt 0.000000 0.000000
vt 0.000000 0.000000
vt 0.000000 0.000000
vt 0.000000 0.000000
vt 0.000000 0.000000
vt 0.000000 0.000000
vn -0.7071 -0.7071 -0.0000
vn 0.5774 -0.5774 0.5774
vn -0.5774 -0.5774 0.5774
vn 0.5774 -0.5774 -0.5774
vn 0.7071 -0.7071 -0.0000
vn 0.5774 0.5774 0.5774
vn -0.7071 0.7071 0.0000
vn -0.5774 0.5774 0.5774
vn 0.5774 0.5774 -0.5774
vn 0.7071 0.7071 0.0000
vn -0.5774 0.5774 -0.5774
vn -0.5774 -0.5774 -0.5774
usemtl None.001
s 1
f 2/1/1 4/2/2 1/3/3
f 2/1/1 6/4/4 3/5/5
f 10/6/6 8/7/7 7/8/8
f 12/9/9 8/7/7 9/10/10
f 4/2/2 7/8/8 1/3/3
f 1/3/3 8/7/7 2/1/1
f 3/5/5 10/6/6 4/2/2
f 6/4/4 9/10/10 3/5/5
f 2/1/1 11/11/11 5/12/12
f 5/12/12 12/9/9 6/4/4
f 2/1/1 3/5/5 4/2/2
f 2/1/1 5/12/12 6/4/4
f 10/6/6 9/10/10 8/7/7
f 12/9/9 11/11/11 8/7/7
f 4/2/2 10/6/6 7/8/8
f 1/3/3 7/8/8 8/7/7
f 3/5/5 9/10/10 10/6/6
f 6/4/4 12/9/9 9/10/10
f 2/1/1 8/7/7 11/11/11
f 5/12/12 11/11/11 12/9/9
