# Blender v2.82 (sub 7) OBJ File: ''
# www.blender.org
mtllib top.mtl
o top
v -9.595751 8.466839 8.465052
v 2.257825 8.466839 8.465052
v 2.257825 8.466839 -8.465052
v -9.595751 8.466839 -8.465052
v 7.337926 8.466839 8.465052
v 7.337926 8.466839 -8.465052
v -9.595751 -8.466839 8.465052
v 2.257825 -8.466839 8.465052
v 2.257825 -8.466839 -8.465052
v -9.595751 -8.466839 -8.465052
v 7.337926 -8.466839 8.465052
v 7.337926 -8.466839 -8.465052
vt 0.000000 0.000000
vt 0.000000 0.000000
vt 0.000000 0.000000
vt 0.000000 0.000000
vt 0.000000 0.000000
vt 0.000000 0.000000
vt 0.000000 0.000000
vt 0.000000 0.000000
vt 0.000000 0.000000
vt 0.000000 0.000000
vt 0.000000 0.000000
vt 0.000000 0.000000
vn 0.0000 0.7071 0.7071
vn -0.5774 0.5774 -0.5774
vn -0.5774 0.5774 0.5774
vn 0.5774 0.5774 -0.5774
vn 0.5774 0.5774 0.5774
vn -0.5774 -0.5774 -0.5774
vn 0.0000 -0.7071 0.7071
vn -0.5774 -0.5774 0.5774
vn 0.5774 -0.5774 -0.5774
vn 0.5774 -0.5774 0.5774
vn 0.0000 0.7071 -0.7071
vn 0.0000 -0.7071 -0.7071
usemtl None
s 1
f 2/1/1 4/2/2 1/3/3
f 6/4/4 2/1/1 5/5/5
f 10/6/6 8/7/7 7/8/8
f 8/7/7 12/9/9 11/10/10
f 4/2/2 7/8/8 1/3/3
f 1/3/3 8/7/7 2/1/1
f 3/11/11 10/6/6 4/2/2
f 2/1/1 11/10/10 5/5/5
f 5/5/5 12/9/9 6/4/4
f 6/4/4 9/12/12 3/11/11
f 2/1/1 3/11/11 4/2/2
f 6/4/4 3/11/11 2/1/1
f 10/6/6 9/12/12 8/7/7
f 8/7/7 9/12/12 12/9/9
f 4/2/2 10/6/6 7/8/8
f 1/3/3 7/8/8 8/7/7
f 3/11/11 9/12/12 10/6/6
f 2/1/1 8/7/7 11/10/10
f 5/5/5 11/10/10 12/9/9
f 6/4/4 12/9/9 9/12/12
